{
  "source": "C:\\Users\\Peter\\Desktop\\stuff\\MIUN\\quantitative_research\\video_compression\\videos\\HEVC_CLASS_B\\Kimono_1920x1080_24.y4m",
  "output": "C:\\Users\\Peter\\Desktop\\stuff\\MIUN\\quantitative_research\\video_compression\\compressed_videos\\HEVC_CLASS_B\\hevc\\2\\Kimono_1920x1080_24_hevc.mp4",
  "codec": "hevc",
  "ok": "Input #0, yuv4mpegpipe, from 'C:\\Users\\Peter\\Desktop\\stuff\\MIUN\\quantitative_research\\video_compression\\videos\\HEVC_CLASS_B\\Kimono_1920x1080_24.y4m':\n  Duration: 00:00:10.00, start: 0.000000, bitrate: 597198 kb/s\n  Stream #0:0: Video: rawvideo (I420 / 0x30323449), yuv420p(progressive), 1920x1080, 24 fps, 24 tbr, 24 tbn\n[out#0/mp4 @ 0000022b7cbeb580] Codec AVOption b:a (set bitrate (in bits/s)) has not been used for any stream. The most likely reason is either wrong type (e.g. a video option with no video streams) or that it is a private option of some decoder which was not actually used for any stream.\nStream mapping:\n  Stream #0:0 -> #0:0 (rawvideo (native) -> hevc (libx265))\nPress [q] to stop, [?] for help\n[libx265 @ 0000022b7cbec940] Unknown option: \"aq-mode.\nx265 [info]: HEVC encoder version 4.1+190-8f11c33ac\nx265 [info]: build info [Windows][GCC 15.1.0][64 bit] 10bit\nx265 [info]: using cpu capabilities: MMX2 SSE2Fast LZCNT SSSE3 SSE4.2 AVX FMA3 BMI2 AVX2\nx265 [info]: Main 10 profile, Level-4 (Main tier)\nx265 [info]: Thread pool created using 12 threads\nx265 [info]: Slices                              : 1\nx265 [info]: frame threads / pool features       : 3 / wpp(17 rows)\nx265 [info]: Coding QT: max CU size, min CU size : 64 / 8\nx265 [info]: Residual QT: max TU size, max depth : 32 / 1 inter / 1 intra\nx265 [info]: ME / range / subpel / merge         : star / 57 / 3 / 3\nx265 [info]: Keyframe min / max / scenecut / bias  : 24 / 250 / 40 / 5.00 \nx265 [info]: Lookahead / bframes / badapt        : 25 / 4 / 2\nx265 [info]: b-pyramid / weightp / weightb       : 1 / 1 / 0\nx265 [info]: References / ref-limit  cu / depth  : 4 / on / on\nx265 [info]: AQ: mode / str / qg-size / cu-tree  : 2 / 1.0 / 32 / 1\nx265 [info]: Rate Control / qCompress            : ABR-2000 kbps / 0.60\nx265 [info]: VBV/HRD buffer / max-rate / init    : 2000 / 2000 / 0.750\nx265 [info]: tools: rect limit-modes rd=4 psy-rd=2.00 rdoq=2 psy-rdoq=1.00\nx265 [info]: tools: rskip mode=1 signhide tmvp strong-intra-smoothing lslices=4\nx265 [info]: tools: deblock sao dhdr10-info\nOutput #0, mp4, to 'C:\\Users\\Peter\\Desktop\\stuff\\MIUN\\quantitative_research\\video_compression\\compressed_videos\\HEVC_CLASS_B\\hevc\\2\\Kimono_1920x1080_24_hevc.mp4':\n  Metadata:\n    encoder         : Lavf62.3.100\n  Stream #0:0: Video: hevc (hev1 / 0x31766568), yuv420p10le(tv, progressive), 1920x1080, q=2-31, 2000 kb/s, 24 fps, 12288 tbn\n    Metadata:\n      encoder         : Lavc62.11.100 libx265\n    Side data:\n      cpb: bitrate max/min/avg: 2000000/0/2000000 buffer size: 2000000 vbv_delay: N/A\nframe=    0 fps=0.0 q=0.0 size=       0KiB time=N/A bitrate=N/A speed=N/A elapsed=0:00:01.28    \nframe=    0 fps=0.0 q=0.0 size=       0KiB time=N/A bitrate=N/A speed=N/A elapsed=0:00:01.90    \nframe=    0 fps=0.0 q=0.0 size=       0KiB time=N/A bitrate=N/A speed=N/A elapsed=0:00:02.46    \nframe=    0 fps=0.0 q=0.0 size=       0KiB time=N/A bitrate=N/A speed=N/A elapsed=0:00:03.03    \nframe=    0 fps=0.0 q=0.0 size=       0KiB time=N/A bitrate=N/A speed=N/A elapsed=0:00:03.54    \nframe=    0 fps=0.0 q=0.0 size=       0KiB time=N/A bitrate=N/A speed=N/A elapsed=0:00:04.17    \nframe=    0 fps=0.0 q=0.0 size=       0KiB time=N/A bitrate=N/A speed=N/A elapsed=0:00:04.71    \nframe=    0 fps=0.0 q=0.0 size=       0KiB time=N/A bitrate=N/A speed=N/A elapsed=0:00:05.35    \nframe=    0 fps=0.0 q=0.0 size=       0KiB time=N/A bitrate=N/A speed=N/A elapsed=0:00:05.90    \nframe=    0 fps=0.0 q=0.0 size=       0KiB time=N/A bitrate=N/A speed=N/A elapsed=0:00:06.52    \nframe=    0 fps=0.0 q=0.0 size=       0KiB time=N/A bitrate=N/A speed=N/A elapsed=0:00:07.07    \nframe=    0 fps=0.0 q=0.0 size=       0KiB time=N/A bitrate=N/A speed=N/A elapsed=0:00:07.62    \nframe=    0 fps=0.0 q=0.0 size=       0KiB time=N/A bitrate=N/A speed=N/A elapsed=0:00:08.19    \nframe=    0 fps=0.0 q=0.0 size=       0KiB time=N/A bitrate=N/A speed=N/A elapsed=0:00:08.83    \nframe=    0 fps=0.0 q=0.0 size=       0KiB time=N/A bitrate=N/A speed=N/A elapsed=0:00:09.36    \nframe=    0 fps=0.0 q=0.0 size=       0KiB time=N/A bitrate=N/A speed=N/A elapsed=0:00:09.91    \nframe=    0 fps=0.0 q=0.0 size=       0KiB time=N/A bitrate=N/A speed=N/A elapsed=0:00:10.48    \nframe=    0 fps=0.0 q=0.0 size=       0KiB time=N/A bitrate=N/A speed=N/A elapsed=0:00:11.05    \nframe=    0 fps=0.0 q=0.0 size=       0KiB time=N/A bitrate=N/A speed=N/A elapsed=0:00:11.63    \nframe=    0 fps=0.0 q=0.0 size=       0KiB time=N/A bitrate=N/A speed=N/A elapsed=0:00:12.22    \nframe=    0 fps=0.0 q=0.0 size=       0KiB time=N/A bitrate=N/A speed=N/A elapsed=0:00:12.83    \nframe=    0 fps=0.0 q=0.0 size=       0KiB time=N/A bitrate=N/A speed=N/A elapsed=0:00:13.42    \nframe=    0 fps=0.0 q=0.0 size=       0KiB time=N/A bitrate=N/A speed=N/A elapsed=0:00:13.93    \nframe=    0 fps=0.0 q=0.0 size=       0KiB time=N/A bitrate=N/A speed=N/A elapsed=0:00:14.55    \nframe=    0 fps=0.0 q=0.0 size=       0KiB time=N/A bitrate=N/A speed=N/A elapsed=0:00:15.16    \nframe=    0 fps=0.0 q=0.0 size=       0KiB time=N/A bitrate=N/A speed=N/A elapsed=0:00:15.78    \nframe=    0 fps=0.0 q=0.0 size=       0KiB time=N/A bitrate=N/A speed=N/A elapsed=0:00:16.39    \nframe=    0 fps=0.0 q=0.0 size=       0KiB time=N/A bitrate=N/A speed=N/A elapsed=0:00:17.04    \nframe=    0 fps=0.0 q=0.0 size=       0KiB time=N/A bitrate=N/A speed=N/A elapsed=0:00:17.73    \nframe=    0 fps=0.0 q=0.0 size=       0KiB time=N/A bitrate=N/A speed=N/A elapsed=0:00:18.34    \nframe=    0 fps=0.0 q=0.0 size=       0KiB time=N/A bitrate=N/A speed=N/A elapsed=0:00:18.90    \nframe=    0 fps=0.0 q=0.0 size=       0KiB time=N/A bitrate=N/A speed=N/A elapsed=0:00:19.57    \nframe=    0 fps=0.0 q=0.0 size=       0KiB time=N/A bitrate=N/A speed=N/A elapsed=0:00:20.18    \nframe=    0 fps=0.0 q=0.0 size=       0KiB time=N/A bitrate=N/A speed=N/A elapsed=0:00:20.74    \nframe=    0 fps=0.0 q=0.0 size=       0KiB time=N/A bitrate=N/A speed=N/A elapsed=0:00:21.35    \nframe=    0 fps=0.0 q=0.0 size=       0KiB time=N/A bitrate=N/A speed=N/A elapsed=0:00:21.96    \nframe=    0 fps=0.0 q=0.0 size=       0KiB time=N/A bitrate=N/A speed=N/A elapsed=0:00:22.57    \nframe=    0 fps=0.0 q=0.0 size=       0KiB time=N/A bitrate=N/A speed=N/A elapsed=0:00:23.14    \nframe=    0 fps=0.0 q=0.0 size=       0KiB time=N/A bitrate=N/A speed=N/A elapsed=0:00:23.72    \nframe=    0 fps=0.0 q=0.0 size=       0KiB time=N/A bitrate=N/A speed=N/A elapsed=0:00:24.23    \nframe=    0 fps=0.0 q=0.0 size=       0KiB time=N/A bitrate=N/A speed=N/A elapsed=0:00:24.82    \nframe=    0 fps=0.0 q=0.0 size=       0KiB time=N/A bitrate=N/A speed=N/A elapsed=0:00:25.42    \nframe=    0 fps=0.0 q=0.0 size=       0KiB time=N/A bitrate=N/A speed=N/A elapsed=0:00:25.97    \nframe=    0 fps=0.0 q=0.0 size=       0KiB time=N/A bitrate=N/A speed=N/A elapsed=0:00:26.63    \nframe=    0 fps=0.0 q=0.0 size=       0KiB time=N/A bitrate=N/A speed=N/A elapsed=0:00:27.19    \nframe=    0 fps=0.0 q=0.0 size=       0KiB time=N/A bitrate=N/A speed=N/A elapsed=0:00:27.81    \nframe=    0 fps=0.0 q=0.0 size=       0KiB time=N/A bitrate=N/A speed=N/A elapsed=0:00:28.35    \nframe=    1 fps=0.0 q=34.3 size=       0KiB time=-00:00:00.04 bitrate=N/A speed=N/A elapsed=0:00:28.98    \nframe=    1 fps=0.0 q=34.3 size=       0KiB time=-00:00:00.04 bitrate=N/A speed=N/A elapsed=0:00:29.67    \nframe=    1 fps=0.0 q=34.3 size=       0KiB time=-00:00:00.04 bitrate=N/A speed=N/A elapsed=0:00:30.36    \nframe=    1 fps=0.0 q=34.3 size=       0KiB time=-00:00:00.04 bitrate=N/A speed=N/A elapsed=0:00:31.01    \nframe=    1 fps=0.0 q=34.3 size=       0KiB time=-00:00:00.04 bitrate=N/A speed=N/A elapsed=0:00:31.59    \nframe=    1 fps=0.0 q=34.3 size=       0KiB time=-00:00:00.04 bitrate=N/A speed=N/A elapsed=0:00:32.21    \nframe=    1 fps=0.0 q=34.3 size=       0KiB time=-00:00:00.04 bitrate=N/A speed=N/A elapsed=0:00:32.90    \nframe=    1 fps=0.0 q=34.3 size=       0KiB time=-00:00:00.04 bitrate=N/A speed=N/A elapsed=0:00:33.46    \nframe=    1 fps=0.0 q=34.3 size=       0KiB time=-00:00:00.04 bitrate=N/A speed=N/A elapsed=0:00:34.05    \nframe=    1 fps=0.0 q=34.3 size=       0KiB time=-00:00:00.04 bitrate=N/A speed=N/A elapsed=0:00:34.65    \nframe=    1 fps=0.0 q=34.3 size=       0KiB time=-00:00:00.04 bitrate=N/A speed=N/A elapsed=0:00:35.27    \nframe=    2 fps=0.1 q=38.2 size=       0KiB time=00:00:00.00 bitrate=N/A speed=   0x elapsed=0:00:35.93    \nframe=    3 fps=0.1 q=40.7 size=       0KiB time=00:00:00.04 bitrate=   8.4kbits/s speed=0.00114x elapsed=0:00:36.61    \nframe=    3 fps=0.1 q=40.7 size=       0KiB time=00:00:00.04 bitrate=   8.4kbits/s speed=0.00112x elapsed=0:00:37.28    \nframe=    3 fps=0.1 q=40.7 size=       0KiB time=00:00:00.04 bitrate=   8.4kbits/s speed=0.0011x elapsed=0:00:37.87    \nframe=    3 fps=0.1 q=40.7 size=       0KiB time=00:00:00.04 bitrate=   8.4kbits/s speed=0.00109x elapsed=0:00:38.40    \nframe=    3 fps=0.1 q=40.7 size=       0KiB time=00:00:00.04 bitrate=   8.4kbits/s speed=0.00107x elapsed=0:00:39.03    \nframe=    4 fps=0.1 q=43.1 size=       0KiB time=00:00:00.04 bitrate=   8.4kbits/s speed=0.00105x elapsed=0:00:39.62    \nframe=    4 fps=0.1 q=43.1 size=       0KiB time=00:00:00.08 bitrate=   4.2kbits/s speed=0.00207x elapsed=0:00:40.19    \nframe=    4 fps=0.1 q=43.1 size=       0KiB time=00:00:00.08 bitrate=   4.2kbits/s speed=0.00205x elapsed=0:00:40.70    \nframe=    4 fps=0.1 q=43.1 size=       0KiB time=00:00:00.08 bitrate=   4.2kbits/s speed=0.00202x elapsed=0:00:41.23    \nframe=    4 fps=0.1 q=43.1 size=       0KiB time=00:00:00.08 bitrate=   4.2kbits/s speed=0.00199x elapsed=0:00:41.80    \nframe=    4 fps=0.1 q=43.1 size=       0KiB time=00:00:00.08 bitrate=   4.2kbits/s speed=0.00197x elapsed=0:00:42.38    \nframe=    4 fps=0.1 q=43.1 size=       0KiB time=00:00:00.08 bitrate=   4.2kbits/s speed=0.00194x elapsed=0:00:42.96    \nframe=    4 fps=0.1 q=43.1 size=       0KiB time=00:00:00.08 bitrate=   4.2kbits/s speed=0.00191x elapsed=0:00:43.52    \nframe=    4 fps=0.1 q=43.1 size=       0KiB time=00:00:00.08 bitrate=   4.2kbits/s speed=0.00189x elapsed=0:00:44.05    \nframe=    5 fps=0.1 q=41.6 size=       0KiB time=00:00:00.12 bitrate=   2.8kbits/s speed=0.0028x elapsed=0:00:44.62    \nframe=    5 fps=0.1 q=41.6 size=       0KiB time=00:00:00.12 bitrate=   2.8kbits/s speed=0.00277x elapsed=0:00:45.16    \nframe=    6 fps=0.1 q=36.1 size=       0KiB time=00:00:00.16 bitrate=   2.1kbits/s speed=0.00364x elapsed=0:00:45.74    \nframe=    6 fps=0.1 q=36.1 size=       0KiB time=00:00:00.16 bitrate=   2.1kbits/s speed=0.0036x elapsed=0:00:46.27    \nframe=    6 fps=0.1 q=36.1 size=       0KiB time=00:00:00.16 bitrate=   2.1kbits/s speed=0.00356x elapsed=0:00:46.80    \nframe=    6 fps=0.1 q=36.1 size=       0KiB time=00:00:00.16 bitrate=   2.1kbits/s speed=0.00352x elapsed=0:00:47.34    \nframe=    7 fps=0.1 q=40.3 size=       0KiB time=00:00:00.20 bitrate=   1.7kbits/s speed=0.00435x elapsed=0:00:47.94    \nframe=    7 fps=0.1 q=40.3 size=       0KiB time=00:00:00.20 bitrate=   1.7kbits/s speed=0.0043x elapsed=0:00:48.46    \nframe=    7 fps=0.1 q=40.3 size=       0KiB time=00:00:00.20 bitrate=   1.7kbits/s speed=0.00425x elapsed=0:00:49.00    \nframe=    7 fps=0.1 q=40.3 size=       0KiB time=00:00:00.20 bitrate=   1.7kbits/s speed=0.00421x elapsed=0:00:49.53    \nframe=    7 fps=0.1 q=40.3 size=       0KiB time=00:00:00.20 bitrate=   1.7kbits/s speed=0.00416x elapsed=0:00:50.08    \nframe=    7 fps=0.1 q=40.3 size=       0KiB time=00:00:00.20 bitrate=   1.7kbits/s speed=0.00412x elapsed=0:00:50.60    \nframe=    8 fps=0.2 q=41.5 size=       0KiB time=00:00:00.25 bitrate=   1.4kbits/s speed=0.00489x elapsed=0:00:51.14    \nframe=    8 fps=0.2 q=41.5 size=       0KiB time=00:00:00.25 bitrate=   1.4kbits/s speed=0.00483x elapsed=0:00:51.72    \nframe=    8 fps=0.2 q=41.5 size=       0KiB time=00:00:00.25 bitrate=   1.4kbits/s speed=0.00478x elapsed=0:00:52.26    \nframe=    8 fps=0.2 q=41.5 size=       0KiB time=00:00:00.25 bitrate=   1.4kbits/s speed=0.00473x elapsed=0:00:52.80    \nframe=    8 fps=0.2 q=41.5 size=       0KiB time=00:00:00.25 bitrate=   1.4kbits/s speed=0.00469x elapsed=0:00:53.32    \nframe=    8 fps=0.1 q=41.5 size=       0KiB time=00:00:00.25 bitrate=   1.4kbits/s speed=0.00464x elapsed=0:00:53.90    \nframe=    8 fps=0.1 q=41.5 size=       0KiB time=00:00:00.25 bitrate=   1.4kbits/s speed=0.00459x elapsed=0:00:54.46    \nframe=    8 fps=0.1 q=41.5 size=       0KiB time=00:00:00.25 bitrate=   1.4kbits/s speed=0.00455x elapsed=0:00:54.98    \nframe=    8 fps=0.1 q=41.5 size=       0KiB time=00:00:00.25 bitrate=   1.4kbits/s speed=0.0045x elapsed=0:00:55.53    \nframe=    8 fps=0.1 q=41.5 size=       0KiB time=00:00:00.25 bitrate=   1.4kbits/s speed=0.00446x elapsed=0:00:56.07    \nframe=    9 fps=0.2 q=41.1 size=       0KiB time=00:00:00.29 bitrate=   1.2kbits/s speed=0.00515x elapsed=0:00:56.66    \nframe=    9 fps=0.2 q=41.1 size=       0KiB time=00:00:00.29 bitrate=   1.2kbits/s speed=0.00509x elapsed=0:00:57.31    \nframe=    9 fps=0.2 q=41.1 size=       0KiB time=00:00:00.29 bitrate=   1.2kbits/s speed=0.00504x elapsed=0:00:57.89    \nframe=    9 fps=0.2 q=41.1 size=       0KiB time=00:00:00.29 bitrate=   1.2kbits/s speed=0.00499x elapsed=0:00:58.45    \nframe=    9 fps=0.2 q=41.1 size=       0KiB time=00:00:00.29 bitrate=   1.2kbits/s speed=0.00495x elapsed=0:00:58.97    \nframe=    9 fps=0.2 q=41.1 size=       0KiB time=00:00:00.29 bitrate=   1.2kbits/s speed=0.0049x elapsed=0:00:59.49    \nframe=    9 fps=0.1 q=41.1 size=       0KiB time=00:00:00.29 bitrate=   1.2kbits/s speed=0.00486x elapsed=0:01:00.04    \nframe=    9 fps=0.1 q=41.1 size=       0KiB time=00:00:00.29 bitrate=   1.2kbits/s speed=0.00482x elapsed=0:01:00.55    \nframe=   10 fps=0.2 q=40.1 size=       0KiB time=00:00:00.33 bitrate=   1.1kbits/s speed=0.00545x elapsed=0:01:01.11    \nframe=   10 fps=0.2 q=40.1 size=       0KiB time=00:00:00.33 bitrate=   1.1kbits/s speed=0.00541x elapsed=0:01:01.66    \nframe=   10 fps=0.2 q=40.1 size=       0KiB time=00:00:00.33 bitrate=   1.1kbits/s speed=0.00536x elapsed=0:01:02.23    \nframe=   11 fps=0.2 q=34.6 size=       0KiB time=00:00:00.33 bitrate=   1.1kbits/s speed=0.00531x elapsed=0:01:02.77    \nframe=   11 fps=0.2 q=34.6 size=       0KiB time=00:00:00.37 bitrate=   0.9kbits/s speed=0.00592x elapsed=0:01:03.31    \nframe=   11 fps=0.2 q=34.6 size=       0KiB time=00:00:00.37 bitrate=   0.9kbits/s speed=0.00587x elapsed=0:01:03.84    \nframe=   11 fps=0.2 q=34.6 size=       0KiB time=00:00:00.37 bitrate=   0.9kbits/s speed=0.00582x elapsed=0:01:04.37    \nframe=   11 fps=0.2 q=34.6 size=       0KiB time=00:00:00.37 bitrate=   0.9kbits/s speed=0.00578x elapsed=0:01:04.91    \nframe=   12 fps=0.2 q=37.1 size=       0KiB time=00:00:00.41 bitrate=   0.8kbits/s speed=0.00636x elapsed=0:01:05.47    \nframe=   12 fps=0.2 q=37.1 size=       0KiB time=00:00:00.41 bitrate=   0.8kbits/s speed=0.00631x elapsed=0:01:06.01    \nframe=   12 fps=0.2 q=37.1 size=       0KiB time=00:00:00.41 bitrate=   0.8kbits/s speed=0.00626x elapsed=0:01:06.53    \nframe=   12 fps=0.2 q=37.1 size=       0KiB time=00:00:00.41 bitrate=   0.8kbits/s speed=0.00621x elapsed=0:01:07.04    \nframe=   12 fps=0.2 q=37.1 size=       0KiB time=00:00:00.41 bitrate=   0.8kbits/s speed=0.00617x elapsed=0:01:07.57    \nframe=   12 fps=0.2 q=37.1 size=       0KiB time=00:00:00.41 bitrate=   0.8kbits/s speed=0.00612x elapsed=0:01:08.12    \nframe=   12 fps=0.2 q=37.1 size=       0KiB time=00:00:00.41 bitrate=   0.8kbits/s speed=0.00607x elapsed=0:01:08.63    \nframe=   12 fps=0.2 q=37.1 size=       0KiB time=00:00:00.41 bitrate=   0.8kbits/s speed=0.00602x elapsed=0:01:09.15    \nframe=   12 fps=0.2 q=37.1 size=       0KiB time=00:00:00.41 bitrate=   0.8kbits/s speed=0.00597x elapsed=0:01:09.73    \nframe=   13 fps=0.2 q=39.5 size=       0KiB time=00:00:00.45 bitrate=   0.8kbits/s speed=0.00651x elapsed=0:01:10.35    \nframe=   13 fps=0.2 q=39.5 size=       0KiB time=00:00:00.45 bitrate=   0.8kbits/s speed=0.00646x elapsed=0:01:10.91    \nframe=   13 fps=0.2 q=39.5 size=       0KiB time=00:00:00.45 bitrate=   0.8kbits/s speed=0.00641x elapsed=0:01:11.48    \nframe=   13 fps=0.2 q=39.5 size=       0KiB time=00:00:00.45 bitrate=   0.8kbits/s speed=0.00637x elapsed=0:01:12.00    \nframe=   13 fps=0.2 q=39.5 size=       0KiB time=00:00:00.45 bitrate=   0.8kbits/s speed=0.00632x elapsed=0:01:12.51    \nframe=   13 fps=0.2 q=39.5 size=       0KiB time=00:00:00.45 bitrate=   0.8kbits/s speed=0.00628x elapsed=0:01:13.02    \nframe=   13 fps=0.2 q=39.5 size=       0KiB time=00:00:00.45 bitrate=   0.8kbits/s speed=0.00623x elapsed=0:01:13.54    \nframe=   13 fps=0.2 q=39.5 size=       0KiB time=00:00:00.45 bitrate=   0.8kbits/s speed=0.00619x elapsed=0:01:14.06    \nframe=   13 fps=0.2 q=39.5 size=       0KiB time=00:00:00.45 bitrate=   0.8kbits/s speed=0.00615x elapsed=0:01:14.57    \nframe=   14 fps=0.2 q=39.3 size=       0KiB time=00:00:00.50 bitrate=   0.7kbits/s speed=0.00666x elapsed=0:01:15.09    \nframe=   14 fps=0.2 q=39.3 size=       0KiB time=00:00:00.50 bitrate=   0.7kbits/s speed=0.00661x elapsed=0:01:15.60    \nframe=   14 fps=0.2 q=39.3 size=       0KiB time=00:00:00.50 bitrate=   0.7kbits/s speed=0.00657x elapsed=0:01:16.12    \nframe=   14 fps=0.2 q=39.3 size=       0KiB time=00:00:00.50 bitrate=   0.7kbits/s speed=0.00652x elapsed=0:01:16.64    \nframe=   14 fps=0.2 q=39.3 size=       0KiB time=00:00:00.50 bitrate=   0.7kbits/s speed=0.00648x elapsed=0:01:17.17    \nframe=   14 fps=0.2 q=39.3 size=       0KiB time=00:00:00.50 bitrate=   0.7kbits/s speed=0.00643x elapsed=0:01:17.70    \nframe=   14 fps=0.2 q=39.3 size=       0KiB time=00:00:00.50 bitrate=   0.7kbits/s speed=0.00639x elapsed=0:01:18.22    \nframe=   14 fps=0.2 q=39.3 size=       0KiB time=00:00:00.50 bitrate=   0.7kbits/s speed=0.00635x elapsed=0:01:18.74    \nframe=   15 fps=0.2 q=34.5 size=       0KiB time=00:00:00.54 bitrate=   0.6kbits/s speed=0.00684x elapsed=0:01:19.24    \nframe=   15 fps=0.2 q=34.5 size=       0KiB time=00:00:00.54 bitrate=   0.6kbits/s speed=0.00679x elapsed=0:01:19.76    \nframe=   15 fps=0.2 q=34.5 size=       0KiB time=00:00:00.54 bitrate=   0.6kbits/s speed=0.00675x elapsed=0:01:20.29    \nframe=   15 fps=0.2 q=34.5 size=       0KiB time=00:00:00.54 bitrate=   0.6kbits/s speed=0.0067x elapsed=0:01:20.79    \nframe=   15 fps=0.2 q=34.5 size=       0KiB time=00:00:00.54 bitrate=   0.6kbits/s speed=0.00666x elapsed=0:01:21.30    \nframe=   15 fps=0.2 q=34.5 size=       0KiB time=00:00:00.54 bitrate=   0.6kbits/s speed=0.00662x elapsed=0:01:21.82    \nframe=   15 fps=0.2 q=34.5 size=       0KiB time=00:00:00.54 bitrate=   0.6kbits/s speed=0.00658x elapsed=0:01:22.34    \nframe=   16 fps=0.2 q=36.4 size=       0KiB time=00:00:00.58 bitrate=   0.6kbits/s speed=0.00704x elapsed=0:01:22.86    \nframe=   16 fps=0.2 q=36.4 size=       0KiB time=00:00:00.58 bitrate=   0.6kbits/s speed=0.007x elapsed=0:01:23.38    \nframe=   16 fps=0.2 q=36.4 size=       0KiB time=00:00:00.58 bitrate=   0.6kbits/s speed=0.00695x elapsed=0:01:23.88    \nframe=   16 fps=0.2 q=36.4 size=       0KiB time=00:00:00.58 bitrate=   0.6kbits/s speed=0.00691x elapsed=0:01:24.40    \nframe=   16 fps=0.2 q=36.4 size=       0KiB time=00:00:00.58 bitrate=   0.6kbits/s speed=0.00687x elapsed=0:01:24.92    \nframe=   16 fps=0.2 q=36.4 size=       0KiB time=00:00:00.58 bitrate=   0.6kbits/s speed=0.00683x elapsed=0:01:25.43    \nframe=   16 fps=0.2 q=36.4 size=       0KiB time=00:00:00.58 bitrate=   0.6kbits/s speed=0.00679x elapsed=0:01:25.95    \nframe=   16 fps=0.2 q=36.4 size=       0KiB time=00:00:00.58 bitrate=   0.6kbits/s speed=0.00675x elapsed=0:01:26.46    \nframe=   16 fps=0.2 q=36.4 size=       0KiB time=00:00:00.58 bitrate=   0.6kbits/s speed=0.00671x elapsed=0:01:26.98    \nframe=   16 fps=0.2 q=36.4 size=       0KiB time=00:00:00.58 bitrate=   0.6kbits/s speed=0.00667x elapsed=0:01:27.49    \nframe=   16 fps=0.2 q=36.4 size=       0KiB time=00:00:00.58 bitrate=   0.6kbits/s speed=0.00663x elapsed=0:01:28.01    \nframe=   16 fps=0.2 q=36.4 size=       0KiB time=00:00:00.58 bitrate=   0.6kbits/s speed=0.00659x elapsed=0:01:28.53    \nframe=   16 fps=0.2 q=36.4 size=       0KiB time=00:00:00.58 bitrate=   0.6kbits/s speed=0.00655x elapsed=0:01:29.04    \nframe=   16 fps=0.2 q=36.4 size=       0KiB time=00:00:00.58 bitrate=   0.6kbits/s speed=0.00651x elapsed=0:01:29.57    \nframe=   17 fps=0.2 q=39.3 size=       0KiB time=00:00:00.62 bitrate=   0.6kbits/s speed=0.00694x elapsed=0:01:30.10    \nframe=   17 fps=0.2 q=39.3 size=       0KiB time=00:00:00.62 bitrate=   0.6kbits/s speed=0.0069x elapsed=0:01:30.60    \nframe=   17 fps=0.2 q=39.3 size=       0KiB time=00:00:00.62 bitrate=   0.6kbits/s speed=0.00686x elapsed=0:01:31.12    \nframe=   17 fps=0.2 q=39.3 size=       0KiB time=00:00:00.62 bitrate=   0.6kbits/s speed=0.00682x elapsed=0:01:31.63    \nframe=   17 fps=0.2 q=39.3 size=       0KiB time=00:00:00.62 bitrate=   0.6kbits/s speed=0.00678x elapsed=0:01:32.15    \nframe=   17 fps=0.2 q=39.3 size=       0KiB time=00:00:00.62 bitrate=   0.6kbits/s speed=0.00674x elapsed=0:01:32.67    \nframe=   17 fps=0.2 q=39.3 size=       0KiB time=00:00:00.62 bitrate=   0.6kbits/s speed=0.00671x elapsed=0:01:33.18    \nframe=   17 fps=0.2 q=39.3 size=       0KiB time=00:00:00.62 bitrate=   0.6kbits/s speed=0.00667x elapsed=0:01:33.70    \nframe=   17 fps=0.2 q=39.3 size=       0KiB time=00:00:00.62 bitrate=   0.6kbits/s speed=0.00663x elapsed=0:01:34.22    \nframe=   17 fps=0.2 q=39.3 size=       0KiB time=00:00:00.62 bitrate=   0.6kbits/s speed=0.0066x elapsed=0:01:34.73    \nframe=   18 fps=0.2 q=39.2 size=       0KiB time=00:00:00.66 bitrate=   0.5kbits/s speed=0.007x elapsed=0:01:35.25    \nframe=   18 fps=0.2 q=39.2 size=       0KiB time=00:00:00.66 bitrate=   0.5kbits/s speed=0.00696x elapsed=0:01:35.76    \nframe=   18 fps=0.2 q=39.2 size=       0KiB time=00:00:00.66 bitrate=   0.5kbits/s speed=0.00692x elapsed=0:01:36.27    \nframe=   18 fps=0.2 q=39.2 size=       0KiB time=00:00:00.66 bitrate=   0.5kbits/s speed=0.00689x elapsed=0:01:36.79    \nframe=   18 fps=0.2 q=39.2 size=       0KiB time=00:00:00.66 bitrate=   0.5kbits/s speed=0.00685x elapsed=0:01:37.31    \nframe=   18 fps=0.2 q=39.2 size=       0KiB time=00:00:00.66 bitrate=   0.5kbits/s speed=0.00681x elapsed=0:01:37.83    \nframe=   18 fps=0.2 q=39.2 size=       0KiB time=00:00:00.66 bitrate=   0.5kbits/s speed=0.00678x elapsed=0:01:38.36    \nframe=   18 fps=0.2 q=39.2 size=       0KiB time=00:00:00.66 bitrate=   0.5kbits/s speed=0.00674x elapsed=0:01:38.87    \nframe=   19 fps=0.2 q=34.2 size=       0KiB time=00:00:00.70 bitrate=   0.5kbits/s speed=0.00713x elapsed=0:01:39.39    \nframe=   19 fps=0.2 q=34.2 size=       0KiB time=00:00:00.70 bitrate=   0.5kbits/s speed=0.00709x elapsed=0:01:39.90    \nframe=   19 fps=0.2 q=34.2 size=       0KiB time=00:00:00.70 bitrate=   0.5kbits/s speed=0.00705x elapsed=0:01:40.42    \nframe=   19 fps=0.2 q=34.2 size=       0KiB time=00:00:00.70 bitrate=   0.5kbits/s speed=0.00702x elapsed=0:01:40.93    \nframe=   19 fps=0.2 q=34.2 size=       0KiB time=00:00:00.70 bitrate=   0.5kbits/s speed=0.00698x elapsed=0:01:41.45    \nframe=   19 fps=0.2 q=34.2 size=       0KiB time=00:00:00.70 bitrate=   0.5kbits/s speed=0.00695x elapsed=0:01:41.97    \nframe=   19 fps=0.2 q=34.2 size=       0KiB time=00:00:00.70 bitrate=   0.5kbits/s speed=0.00691x elapsed=0:01:42.48    \nframe=   20 fps=0.2 q=34.4 size=       0KiB time=00:00:00.75 bitrate=   0.5kbits/s speed=0.00728x elapsed=0:01:43.00    \nframe=   20 fps=0.2 q=34.4 size=       0KiB time=00:00:00.75 bitrate=   0.5kbits/s speed=0.00725x elapsed=0:01:43.51    \nframe=   20 fps=0.2 q=34.4 size=       0KiB time=00:00:00.75 bitrate=   0.5kbits/s speed=0.00721x elapsed=0:01:44.02    \nframe=   20 fps=0.2 q=34.4 size=       0KiB time=00:00:00.75 bitrate=   0.5kbits/s speed=0.00717x elapsed=0:01:44.55    \nframe=   20 fps=0.2 q=34.4 size=       0KiB time=00:00:00.75 bitrate=   0.5kbits/s speed=0.00714x elapsed=0:01:45.07    \nframe=   21 fps=0.2 q=39.3 size=       0KiB time=00:00:00.79 bitrate=   0.4kbits/s speed=0.0075x elapsed=0:01:45.60    \nframe=   21 fps=0.2 q=39.3 size=       0KiB time=00:00:00.79 bitrate=   0.4kbits/s speed=0.00746x elapsed=0:01:46.10    \nframe=   21 fps=0.2 q=39.3 size=       0KiB time=00:00:00.79 bitrate=   0.4kbits/s speed=0.00742x elapsed=0:01:46.63    \nframe=   21 fps=0.2 q=39.3 size=       0KiB time=00:00:00.79 bitrate=   0.4kbits/s speed=0.00739x elapsed=0:01:47.13    \nframe=   21 fps=0.2 q=39.3 size=       0KiB time=00:00:00.79 bitrate=   0.4kbits/s speed=0.00735x elapsed=0:01:47.65    \nframe=   21 fps=0.2 q=39.3 size=       0KiB time=00:00:00.79 bitrate=   0.4kbits/s speed=0.00732x elapsed=0:01:48.16    \nframe=   21 fps=0.2 q=39.3 size=       0KiB time=00:00:00.79 bitrate=   0.4kbits/s speed=0.00728x elapsed=0:01:48.69    \nframe=   21 fps=0.2 q=39.3 size=       0KiB time=00:00:00.79 bitrate=   0.4kbits/s speed=0.00725x elapsed=0:01:49.22    \nframe=   21 fps=0.2 q=39.3 size=       0KiB time=00:00:00.79 bitrate=   0.4kbits/s speed=0.00721x elapsed=0:01:49.75    \nframe=   21 fps=0.2 q=39.3 size=       0KiB time=00:00:00.79 bitrate=   0.4kbits/s speed=0.00718x elapsed=0:01:50.26    \nframe=   21 fps=0.2 q=39.3 size=       0KiB time=00:00:00.79 bitrate=   0.4kbits/s speed=0.00715x elapsed=0:01:50.77    \nframe=   22 fps=0.2 q=38.9 size=       0KiB time=00:00:00.83 bitrate=   0.4kbits/s speed=0.00749x elapsed=0:01:51.29    \nframe=   22 fps=0.2 q=38.9 size=       0KiB time=00:00:00.83 bitrate=   0.4kbits/s speed=0.00745x elapsed=0:01:51.81    \nframe=   22 fps=0.2 q=38.9 size=       0KiB time=00:00:00.83 bitrate=   0.4kbits/s speed=0.00742x elapsed=0:01:52.33    \nframe=   22 fps=0.2 q=38.9 size=       0KiB time=00:00:00.83 bitrate=   0.4kbits/s speed=0.00738x elapsed=0:01:52.84    \nframe=   22 fps=0.2 q=38.9 size=       0KiB time=00:00:00.83 bitrate=   0.4kbits/s speed=0.00735x elapsed=0:01:53.35    \nframe=   22 fps=0.2 q=38.9 size=       0KiB time=00:00:00.83 bitrate=   0.4kbits/s speed=0.00732x elapsed=0:01:53.87    \nframe=   22 fps=0.2 q=38.9 size=       0KiB time=00:00:00.83 bitrate=   0.4kbits/s speed=0.00728x elapsed=0:01:54.39    \nframe=   22 fps=0.2 q=38.9 size=       0KiB time=00:00:00.83 bitrate=   0.4kbits/s speed=0.00725x elapsed=0:01:54.91    \nframe=   22 fps=0.2 q=38.9 size=       0KiB time=00:00:00.83 bitrate=   0.4kbits/s speed=0.00722x elapsed=0:01:55.41    \nframe=   22 fps=0.2 q=38.9 size=       0KiB time=00:00:00.83 bitrate=   0.4kbits/s speed=0.00719x elapsed=0:01:55.93    \nframe=   22 fps=0.2 q=38.9 size=       0KiB time=00:00:00.83 bitrate=   0.4kbits/s speed=0.00716x elapsed=0:01:56.46    \nframe=   22 fps=0.2 q=38.9 size=       0KiB time=00:00:00.83 bitrate=   0.4kbits/s speed=0.00712x elapsed=0:01:56.96    \nframe=   23 fps=0.2 q=38.7 size=       0KiB time=00:00:00.87 bitrate=   0.4kbits/s speed=0.00745x elapsed=0:01:57.48    \nframe=   23 fps=0.2 q=38.7 size=       0KiB time=00:00:00.87 bitrate=   0.4kbits/s speed=0.00741x elapsed=0:01:58.00    \nframe=   23 fps=0.2 q=38.7 size=       0KiB time=00:00:00.87 bitrate=   0.4kbits/s speed=0.00738x elapsed=0:01:58.51    \nframe=   24 fps=0.2 q=34.1 size=       0KiB time=00:00:00.91 bitrate=   0.4kbits/s speed=0.0077x elapsed=0:01:59.03    \nframe=   24 fps=0.2 q=34.1 size=       0KiB time=00:00:00.91 bitrate=   0.4kbits/s speed=0.00767x elapsed=0:01:59.54    \nframe=   25 fps=0.2 q=34.4 size=       0KiB time=00:00:00.95 bitrate=   0.4kbits/s speed=0.00798x elapsed=0:02:00.06    \nframe=   25 fps=0.2 q=34.4 size=       0KiB time=00:00:00.95 bitrate=   0.4kbits/s speed=0.00795x elapsed=0:02:00.57    \nframe=   26 fps=0.2 q=38.6 size=       0KiB time=00:00:01.00 bitrate=   0.4kbits/s speed=0.00826x elapsed=0:02:01.10    \nframe=   26 fps=0.2 q=38.6 size=       0KiB time=00:00:01.00 bitrate=   0.4kbits/s speed=0.00822x elapsed=0:02:01.61    \nframe=   26 fps=0.2 q=38.6 size=       0KiB time=00:00:01.00 bitrate=   0.4kbits/s speed=0.00819x elapsed=0:02:02.12    \nframe=   26 fps=0.2 q=38.6 size=       0KiB time=00:00:01.00 bitrate=   0.4kbits/s speed=0.00815x elapsed=0:02:02.63    \nframe=   26 fps=0.2 q=38.6 size=       0KiB time=00:00:01.00 bitrate=   0.4kbits/s speed=0.00812x elapsed=0:02:03.15    \nframe=   26 fps=0.2 q=38.6 size=       0KiB time=00:00:01.00 bitrate=   0.4kbits/s speed=0.00809x elapsed=0:02:03.67    \nframe=   27 fps=0.2 q=38.7 size=       0KiB time=00:00:01.04 bitrate=   0.3kbits/s speed=0.00839x elapsed=0:02:04.18    \nframe=   27 fps=0.2 q=38.7 size=       0KiB time=00:00:01.04 bitrate=   0.3kbits/s speed=0.00835x elapsed=0:02:04.70    \nframe=   27 fps=0.2 q=38.7 size=       0KiB time=00:00:01.04 bitrate=   0.3kbits/s speed=0.00832x elapsed=0:02:05.22    \nframe=   27 fps=0.2 q=38.7 size=       0KiB time=00:00:01.04 bitrate=   0.3kbits/s speed=0.00828x elapsed=0:02:05.73    \nframe=   27 fps=0.2 q=38.7 size=       0KiB time=00:00:01.04 bitrate=   0.3kbits/s speed=0.00825x elapsed=0:02:06.24    \nframe=   28 fps=0.2 q=38.3 size=       0KiB time=00:00:01.08 bitrate=   0.3kbits/s speed=0.00855x elapsed=0:02:06.76    \nframe=   28 fps=0.2 q=38.3 size=       0KiB time=00:00:01.08 bitrate=   0.3kbits/s speed=0.00851x elapsed=0:02:07.27    \nframe=   28 fps=0.2 q=38.3 size=       0KiB time=00:00:01.08 bitrate=   0.3kbits/s speed=0.00848x elapsed=0:02:07.79    \nframe=   28 fps=0.2 q=38.3 size=       0KiB time=00:00:01.08 bitrate=   0.3kbits/s speed=0.00844x elapsed=0:02:08.32    \nframe=   28 fps=0.2 q=38.3 size=       0KiB time=00:00:01.08 bitrate=   0.3kbits/s speed=0.00841x elapsed=0:02:08.84    \nframe=   29 fps=0.2 q=34.0 size=       0KiB time=00:00:01.12 bitrate=   0.3kbits/s speed=0.0087x elapsed=0:02:09.35    \nframe=   29 fps=0.2 q=34.0 size=       0KiB time=00:00:01.12 bitrate=   0.3kbits/s speed=0.00866x elapsed=0:02:09.87    \nframe=   29 fps=0.2 q=34.0 size=       0KiB time=00:00:01.12 bitrate=   0.3kbits/s speed=0.00863x elapsed=0:02:10.38    \nframe=   29 fps=0.2 q=34.0 size=       0KiB time=00:00:01.12 bitrate=   0.3kbits/s speed=0.00859x elapsed=0:02:10.90    \nframe=   29 fps=0.2 q=34.0 size=       0KiB time=00:00:01.12 bitrate=   0.3kbits/s speed=0.00856x elapsed=0:02:11.41    \nframe=   29 fps=0.2 q=34.0 size=       0KiB time=00:00:01.12 bitrate=   0.3kbits/s speed=0.00853x elapsed=0:02:11.93    \nframe=   29 fps=0.2 q=34.0 size=       0KiB time=00:00:01.12 bitrate=   0.3kbits/s speed=0.00849x elapsed=0:02:12.45    \nframe=   29 fps=0.2 q=34.0 size=       0KiB time=00:00:01.12 bitrate=   0.3kbits/s speed=0.00846x elapsed=0:02:12.97    \nframe=   29 fps=0.2 q=34.0 size=       0KiB time=00:00:01.12 bitrate=   0.3kbits/s speed=0.00843x elapsed=0:02:13.48    \nframe=   30 fps=0.2 q=35.9 size=     256KiB time=00:00:01.16 bitrate=1797.9kbits/s speed=0.00871x elapsed=0:02:14.00    \nframe=   30 fps=0.2 q=35.9 size=     256KiB time=00:00:01.16 bitrate=1797.9kbits/s speed=0.00867x elapsed=0:02:14.52    \nframe=   30 fps=0.2 q=35.9 size=     256KiB time=00:00:01.16 bitrate=1797.9kbits/s speed=0.00864x elapsed=0:02:15.04    \nframe=   30 fps=0.2 q=35.9 size=     256KiB time=00:00:01.16 bitrate=1797.9kbits/s speed=0.00861x elapsed=0:02:15.55    \nframe=   30 fps=0.2 q=35.9 size=     256KiB time=00:00:01.16 bitrate=1797.9kbits/s speed=0.00857x elapsed=0:02:16.07    \nframe=   30 fps=0.2 q=35.9 size=     256KiB time=00:00:01.16 bitrate=1797.9kbits/s speed=0.00854x elapsed=0:02:16.59    \nframe=   30 fps=0.2 q=35.9 size=     256KiB time=00:00:01.16 bitrate=1797.9kbits/s speed=0.00851x elapsed=0:02:17.11    \nframe=   30 fps=0.2 q=35.9 size=     256KiB time=00:00:01.16 bitrate=1797.9kbits/s speed=0.00848x elapsed=0:02:17.61    \nframe=   30 fps=0.2 q=35.9 size=     256KiB time=00:00:01.16 bitrate=1797.9kbits/s speed=0.00845x elapsed=0:02:18.13    \nframe=   30 fps=0.2 q=35.9 size=     256KiB time=00:00:01.16 bitrate=1797.9kbits/s speed=0.00841x elapsed=0:02:18.65    \nframe=   30 fps=0.2 q=35.9 size=     256KiB time=00:00:01.16 bitrate=1797.9kbits/s speed=0.00838x elapsed=0:02:19.17    \nframe=   30 fps=0.2 q=35.9 size=     256KiB time=00:00:01.16 bitrate=1797.9kbits/s speed=0.00835x elapsed=0:02:19.68    \nframe=   31 fps=0.2 q=38.7 size=     256KiB time=00:00:01.20 bitrate=1735.9kbits/s speed=0.00862x elapsed=0:02:20.20    \nframe=   31 fps=0.2 q=38.7 size=     256KiB time=00:00:01.20 bitrate=1735.9kbits/s speed=0.00859x elapsed=0:02:20.72    \nframe=   31 fps=0.2 q=38.7 size=     256KiB time=00:00:01.20 bitrate=1735.9kbits/s speed=0.00856x elapsed=0:02:21.23    \nframe=   31 fps=0.2 q=38.7 size=     256KiB time=00:00:01.20 bitrate=1735.9kbits/s speed=0.00852x elapsed=0:02:21.75    \nframe=   31 fps=0.2 q=38.7 size=     256KiB time=00:00:01.20 bitrate=1735.9kbits/s speed=0.00849x elapsed=0:02:22.26    \nframe=   31 fps=0.2 q=38.7 size=     256KiB time=00:00:01.20 bitrate=1735.9kbits/s speed=0.00846x elapsed=0:02:22.77    \nframe=   32 fps=0.2 q=38.2 size=     256KiB time=00:00:01.25 bitrate=1678.0kbits/s speed=0.00872x elapsed=0:02:23.30    \nframe=   32 fps=0.2 q=38.2 size=     256KiB time=00:00:01.25 bitrate=1678.0kbits/s speed=0.00869x elapsed=0:02:23.81    \nframe=   32 fps=0.2 q=38.2 size=     256KiB time=00:00:01.25 bitrate=1678.0kbits/s speed=0.00866x elapsed=0:02:24.33    \nframe=   32 fps=0.2 q=38.2 size=     256KiB time=00:00:01.25 bitrate=1678.0kbits/s speed=0.00863x elapsed=0:02:24.84    \nframe=   32 fps=0.2 q=38.2 size=     256KiB time=00:00:01.25 bitrate=1678.0kbits/s speed=0.0086x elapsed=0:02:25.36    \nframe=   32 fps=0.2 q=38.2 size=     256KiB time=00:00:01.25 bitrate=1678.0kbits/s speed=0.00857x elapsed=0:02:25.87    \nframe=   33 fps=0.2 q=33.8 size=     256KiB time=00:00:01.29 bitrate=1623.9kbits/s speed=0.00882x elapsed=0:02:26.39    \nframe=   33 fps=0.2 q=33.8 size=     256KiB time=00:00:01.29 bitrate=1623.9kbits/s speed=0.00879x elapsed=0:02:26.90    \nframe=   33 fps=0.2 q=33.8 size=     256KiB time=00:00:01.29 bitrate=1623.9kbits/s speed=0.00876x elapsed=0:02:27.42    \nframe=   33 fps=0.2 q=33.8 size=     256KiB time=00:00:01.29 bitrate=1623.9kbits/s speed=0.00873x elapsed=0:02:27.93    \nframe=   33 fps=0.2 q=33.8 size=     256KiB time=00:00:01.29 bitrate=1623.9kbits/s speed=0.0087x elapsed=0:02:28.44    \nframe=   33 fps=0.2 q=33.8 size=     256KiB time=00:00:01.29 bitrate=1623.9kbits/s speed=0.00867x elapsed=0:02:28.96    \nframe=   33 fps=0.2 q=33.8 size=     256KiB time=00:00:01.29 bitrate=1623.9kbits/s speed=0.00864x elapsed=0:02:29.48    \nframe=   34 fps=0.2 q=36.1 size=     256KiB time=00:00:01.33 bitrate=1573.1kbits/s speed=0.00889x elapsed=0:02:30.00    \nframe=   34 fps=0.2 q=36.1 size=     256KiB time=00:00:01.33 bitrate=1573.1kbits/s speed=0.00886x elapsed=0:02:30.52    \nframe=   34 fps=0.2 q=36.1 size=     256KiB time=00:00:01.33 bitrate=1573.1kbits/s speed=0.00883x elapsed=0:02:31.03    \nframe=   34 fps=0.2 q=36.1 size=     256KiB time=00:00:01.33 bitrate=1573.1kbits/s speed=0.0088x elapsed=0:02:31.55    \nframe=   34 fps=0.2 q=36.1 size=     256KiB time=00:00:01.33 bitrate=1573.1kbits/s speed=0.00877x elapsed=0:02:32.06    \nframe=   34 fps=0.2 q=36.1 size=     256KiB time=00:00:01.33 bitrate=1573.1kbits/s speed=0.00874x elapsed=0:02:32.58    \nframe=   34 fps=0.2 q=36.1 size=     256KiB time=00:00:01.33 bitrate=1573.1kbits/s speed=0.00871x elapsed=0:02:33.09    \nframe=   34 fps=0.2 q=36.1 size=     256KiB time=00:00:01.33 bitrate=1573.1kbits/s speed=0.00868x elapsed=0:02:33.60    \nframe=   34 fps=0.2 q=36.1 size=     256KiB time=00:00:01.33 bitrate=1573.1kbits/s speed=0.00865x elapsed=0:02:34.12    \nframe=   34 fps=0.2 q=36.1 size=     256KiB time=00:00:01.33 bitrate=1573.1kbits/s speed=0.00862x elapsed=0:02:34.65    \nframe=   34 fps=0.2 q=36.1 size=     256KiB time=00:00:01.33 bitrate=1573.1kbits/s speed=0.00859x elapsed=0:02:35.17    \nframe=   34 fps=0.2 q=36.1 size=     256KiB time=00:00:01.33 bitrate=1573.1kbits/s speed=0.00856x elapsed=0:02:35.68    \nframe=   34 fps=0.2 q=36.1 size=     256KiB time=00:00:01.33 bitrate=1573.1kbits/s speed=0.00854x elapsed=0:02:36.20    \nframe=   35 fps=0.2 q=38.6 size=     256KiB time=00:00:01.37 bitrate=1525.5kbits/s speed=0.00877x elapsed=0:02:36.71    \nframe=   35 fps=0.2 q=38.6 size=     256KiB time=00:00:01.37 bitrate=1525.5kbits/s speed=0.00874x elapsed=0:02:37.23    \nframe=   35 fps=0.2 q=38.6 size=     256KiB time=00:00:01.37 bitrate=1525.5kbits/s speed=0.00872x elapsed=0:02:37.74    \nframe=   35 fps=0.2 q=38.6 size=     256KiB time=00:00:01.37 bitrate=1525.5kbits/s speed=0.00869x elapsed=0:02:38.26    \nframe=   35 fps=0.2 q=38.6 size=     256KiB time=00:00:01.37 bitrate=1525.5kbits/s speed=0.00866x elapsed=0:02:38.78    \nframe=   35 fps=0.2 q=38.6 size=     256KiB time=00:00:01.37 bitrate=1525.5kbits/s speed=0.00863x elapsed=0:02:39.31    \nframe=   35 fps=0.2 q=38.6 size=     256KiB time=00:00:01.37 bitrate=1525.5kbits/s speed=0.0086x elapsed=0:02:39.82    \nframe=   35 fps=0.2 q=38.6 size=     256KiB time=00:00:01.37 bitrate=1525.5kbits/s speed=0.00857x elapsed=0:02:40.35    \nframe=   36 fps=0.2 q=38.6 size=     256KiB time=00:00:01.41 bitrate=1480.6kbits/s speed=0.00881x elapsed=0:02:40.86    \nframe=   36 fps=0.2 q=38.6 size=     256KiB time=00:00:01.41 bitrate=1480.6kbits/s speed=0.00878x elapsed=0:02:41.37    \nframe=   36 fps=0.2 q=38.6 size=     256KiB time=00:00:01.41 bitrate=1480.6kbits/s speed=0.00875x elapsed=0:02:41.89    \nframe=   36 fps=0.2 q=38.6 size=     256KiB time=00:00:01.41 bitrate=1480.6kbits/s speed=0.00872x elapsed=0:02:42.40    \nframe=   36 fps=0.2 q=38.6 size=     256KiB time=00:00:01.41 bitrate=1480.6kbits/s speed=0.0087x elapsed=0:02:42.91    \nframe=   36 fps=0.2 q=38.6 size=     256KiB time=00:00:01.41 bitrate=1480.6kbits/s speed=0.00867x elapsed=0:02:43.43    \nframe=   37 fps=0.2 q=33.9 size=     256KiB time=00:00:01.45 bitrate=1438.3kbits/s speed=0.00889x elapsed=0:02:43.95    \nframe=   37 fps=0.2 q=33.9 size=     256KiB time=00:00:01.45 bitrate=1438.3kbits/s speed=0.00887x elapsed=0:02:44.46    \nframe=   37 fps=0.2 q=33.9 size=     256KiB time=00:00:01.45 bitrate=1438.3kbits/s speed=0.00884x elapsed=0:02:44.98    \nframe=   37 fps=0.2 q=33.9 size=     256KiB time=00:00:01.45 bitrate=1438.3kbits/s speed=0.00881x elapsed=0:02:45.50    \nframe=   37 fps=0.2 q=33.9 size=     256KiB time=00:00:01.45 bitrate=1438.3kbits/s speed=0.00878x elapsed=0:02:46.01    \nframe=   37 fps=0.2 q=33.9 size=     256KiB time=00:00:01.45 bitrate=1438.3kbits/s speed=0.00876x elapsed=0:02:46.52    \nframe=   38 fps=0.2 q=35.5 size=     256KiB time=00:00:01.50 bitrate=1398.3kbits/s speed=0.00898x elapsed=0:02:47.04    \nframe=   38 fps=0.2 q=35.5 size=     256KiB time=00:00:01.50 bitrate=1398.3kbits/s speed=0.00895x elapsed=0:02:47.56    \nframe=   38 fps=0.2 q=35.5 size=     256KiB time=00:00:01.50 bitrate=1398.3kbits/s speed=0.00892x elapsed=0:02:48.07    \nframe=   38 fps=0.2 q=35.5 size=     256KiB time=00:00:01.50 bitrate=1398.3kbits/s speed=0.0089x elapsed=0:02:48.60    \nframe=   38 fps=0.2 q=35.5 size=     256KiB time=00:00:01.50 bitrate=1398.3kbits/s speed=0.00887x elapsed=0:02:49.11    \nframe=   38 fps=0.2 q=35.5 size=     256KiB time=00:00:01.50 bitrate=1398.3kbits/s speed=0.00884x elapsed=0:02:49.63    \nframe=   38 fps=0.2 q=35.5 size=     256KiB time=00:00:01.50 bitrate=1398.3kbits/s speed=0.00882x elapsed=0:02:50.15    \nframe=   38 fps=0.2 q=35.5 size=     256KiB time=00:00:01.50 bitrate=1398.3kbits/s speed=0.00879x elapsed=0:02:50.67    \nframe=   38 fps=0.2 q=35.5 size=     256KiB time=00:00:01.50 bitrate=1398.3kbits/s speed=0.00876x elapsed=0:02:51.20    \nframe=   38 fps=0.2 q=35.5 size=     256KiB time=00:00:01.50 bitrate=1398.3kbits/s speed=0.00874x elapsed=0:02:51.71    \nframe=   38 fps=0.2 q=35.5 size=     256KiB time=00:00:01.50 bitrate=1398.3kbits/s speed=0.00871x elapsed=0:02:52.23    \nframe=   38 fps=0.2 q=35.5 size=     256KiB time=00:00:01.50 bitrate=1398.3kbits/s speed=0.00868x elapsed=0:02:52.74    \nframe=   39 fps=0.2 q=38.3 size=     256KiB time=00:00:01.54 bitrate=1360.5kbits/s speed=0.0089x elapsed=0:02:53.26    \nframe=   39 fps=0.2 q=38.3 size=     256KiB time=00:00:01.54 bitrate=1360.5kbits/s speed=0.00887x elapsed=0:02:53.78    \nframe=   39 fps=0.2 q=38.3 size=     256KiB time=00:00:01.54 bitrate=1360.5kbits/s speed=0.00884x elapsed=0:02:54.30    \nframe=   39 fps=0.2 q=38.3 size=     256KiB time=00:00:01.54 bitrate=1360.5kbits/s speed=0.00882x elapsed=0:02:54.83    \nframe=   39 fps=0.2 q=38.3 size=     256KiB time=00:00:01.54 bitrate=1360.5kbits/s speed=0.00879x elapsed=0:02:55.34    \nframe=   39 fps=0.2 q=38.3 size=     256KiB time=00:00:01.54 bitrate=1360.5kbits/s speed=0.00877x elapsed=0:02:55.86    \nframe=   39 fps=0.2 q=38.3 size=     256KiB time=00:00:01.54 bitrate=1360.5kbits/s speed=0.00874x elapsed=0:02:56.37    \nframe=   40 fps=0.2 q=38.4 size=     256KiB time=00:00:01.58 bitrate=1324.7kbits/s speed=0.00895x elapsed=0:02:56.88    \nframe=   40 fps=0.2 q=38.4 size=     256KiB time=00:00:01.58 bitrate=1324.7kbits/s speed=0.00893x elapsed=0:02:57.40    \nframe=   40 fps=0.2 q=38.4 size=     256KiB time=00:00:01.58 bitrate=1324.7kbits/s speed=0.0089x elapsed=0:02:57.92    \nframe=   41 fps=0.2 q=33.7 size=     256KiB time=00:00:01.62 bitrate=1290.8kbits/s speed=0.00911x elapsed=0:02:58.43    \nframe=   41 fps=0.2 q=33.7 size=     256KiB time=00:00:01.62 bitrate=1290.8kbits/s speed=0.00908x elapsed=0:02:58.95    \nframe=   41 fps=0.2 q=33.7 size=     256KiB time=00:00:01.62 bitrate=1290.8kbits/s speed=0.00905x elapsed=0:02:59.47    \nframe=   42 fps=0.2 q=35.4 size=     256KiB time=00:00:01.66 bitrate=1258.5kbits/s speed=0.00926x elapsed=0:02:59.99    \nframe=   42 fps=0.2 q=35.4 size=     256KiB time=00:00:01.66 bitrate=1258.5kbits/s speed=0.00923x elapsed=0:03:00.49    \nframe=   42 fps=0.2 q=35.4 size=     256KiB time=00:00:01.66 bitrate=1258.5kbits/s speed=0.00921x elapsed=0:03:01.01    \nframe=   42 fps=0.2 q=35.4 size=     256KiB time=00:00:01.66 bitrate=1258.5kbits/s speed=0.00918x elapsed=0:03:01.54    \nframe=   42 fps=0.2 q=35.4 size=     256KiB time=00:00:01.66 bitrate=1258.5kbits/s speed=0.00916x elapsed=0:03:02.04    \nframe=   43 fps=0.2 q=38.4 size=     256KiB time=00:00:01.70 bitrate=1227.8kbits/s speed=0.00936x elapsed=0:03:02.56    \nframe=   43 fps=0.2 q=38.4 size=     256KiB time=00:00:01.70 bitrate=1227.8kbits/s speed=0.00933x elapsed=0:03:03.07    \nframe=   43 fps=0.2 q=38.4 size=     256KiB time=00:00:01.70 bitrate=1227.8kbits/s speed=0.00931x elapsed=0:03:03.59    \nframe=   43 fps=0.2 q=38.4 size=     256KiB time=00:00:01.70 bitrate=1227.8kbits/s speed=0.00928x elapsed=0:03:04.10    \nframe=   44 fps=0.2 q=38.3 size=     256KiB time=00:00:01.75 bitrate=1198.6kbits/s speed=0.00948x elapsed=0:03:04.62    \nframe=   44 fps=0.2 q=38.3 size=     256KiB time=00:00:01.75 bitrate=1198.6kbits/s speed=0.00945x elapsed=0:03:05.13    \nframe=   44 fps=0.2 q=38.3 size=     256KiB time=00:00:01.75 bitrate=1198.6kbits/s speed=0.00943x elapsed=0:03:05.66    \nframe=   45 fps=0.2 q=33.5 size=     256KiB time=00:00:01.79 bitrate=1170.7kbits/s speed=0.00962x elapsed=0:03:06.17    \nframe=   45 fps=0.2 q=33.5 size=     256KiB time=00:00:01.79 bitrate=1170.7kbits/s speed=0.0096x elapsed=0:03:06.68    \nframe=   45 fps=0.2 q=33.5 size=     256KiB time=00:00:01.79 bitrate=1170.7kbits/s speed=0.00957x elapsed=0:03:07.20    \nframe=   46 fps=0.2 q=35.4 size=     256KiB time=00:00:01.83 bitrate=1144.1kbits/s speed=0.00977x elapsed=0:03:07.72    \nframe=   46 fps=0.2 q=35.4 size=     256KiB time=00:00:01.83 bitrate=1144.1kbits/s speed=0.00974x elapsed=0:03:08.22    \nframe=   46 fps=0.2 q=35.4 size=     256KiB time=00:00:01.83 bitrate=1144.1kbits/s speed=0.00971x elapsed=0:03:08.74    \nframe=   46 fps=0.2 q=35.4 size=     256KiB time=00:00:01.83 bitrate=1144.1kbits/s speed=0.00969x elapsed=0:03:09.26    \nframe=   46 fps=0.2 q=35.4 size=     256KiB time=00:00:01.83 bitrate=1144.1kbits/s speed=0.00966x elapsed=0:03:09.77    \nframe=   47 fps=0.2 q=38.1 size=     256KiB time=00:00:01.87 bitrate=1118.7kbits/s speed=0.00985x elapsed=0:03:10.30    \nframe=   47 fps=0.2 q=38.1 size=     256KiB time=00:00:01.87 bitrate=1118.7kbits/s speed=0.00983x elapsed=0:03:10.80    \nframe=   48 fps=0.3 q=37.9 size=     256KiB time=00:00:01.91 bitrate=1094.3kbits/s speed=0.01x elapsed=0:03:11.32    \nframe=   48 fps=0.3 q=37.9 size=     256KiB time=00:00:01.91 bitrate=1094.3kbits/s speed=0.00999x elapsed=0:03:11.84    \nframe=   48 fps=0.2 q=37.9 size=     256KiB time=00:00:01.91 bitrate=1094.3kbits/s speed=0.00996x elapsed=0:03:12.35    \nframe=   49 fps=0.3 q=33.6 size=     256KiB time=00:00:01.95 bitrate=1071.1kbits/s speed=0.0102x elapsed=0:03:12.87    \nframe=   50 fps=0.3 q=35.4 size=     256KiB time=00:00:02.00 bitrate=1048.8kbits/s speed=0.0103x elapsed=0:03:13.39    \nframe=   50 fps=0.3 q=35.4 size=     256KiB time=00:00:02.00 bitrate=1048.8kbits/s speed=0.0103x elapsed=0:03:13.91    \nframe=   50 fps=0.3 q=35.4 size=     256KiB time=00:00:02.00 bitrate=1048.8kbits/s speed=0.0103x elapsed=0:03:14.43    \nframe=   50 fps=0.3 q=35.4 size=     256KiB time=00:00:02.00 bitrate=1048.8kbits/s speed=0.0103x elapsed=0:03:14.93    \nframe=   51 fps=0.3 q=38.2 size=     256KiB time=00:00:02.04 bitrate=1027.3kbits/s speed=0.0104x elapsed=0:03:15.45    \nframe=   51 fps=0.3 q=38.2 size=     256KiB time=00:00:02.04 bitrate=1027.3kbits/s speed=0.0104x elapsed=0:03:15.97    \nframe=   51 fps=0.3 q=38.2 size=     256KiB time=00:00:02.04 bitrate=1027.3kbits/s speed=0.0104x elapsed=0:03:16.49    \nframe=   52 fps=0.3 q=38.3 size=     256KiB time=00:00:02.08 bitrate=1006.8kbits/s speed=0.0106x elapsed=0:03:17.00    \nframe=   52 fps=0.3 q=38.3 size=     256KiB time=00:00:02.08 bitrate=1006.8kbits/s speed=0.0105x elapsed=0:03:17.51    \nframe=   53 fps=0.3 q=33.8 size=     256KiB time=00:00:02.12 bitrate= 987.1kbits/s speed=0.0107x elapsed=0:03:18.02    \nframe=   53 fps=0.3 q=33.8 size=     256KiB time=00:00:02.12 bitrate= 987.1kbits/s speed=0.0107x elapsed=0:03:18.55    \nframe=   54 fps=0.3 q=35.5 size=     512KiB time=00:00:02.16 bitrate=1936.0kbits/s speed=0.0109x elapsed=0:03:19.06    \nframe=   54 fps=0.3 q=35.5 size=     512KiB time=00:00:02.16 bitrate=1936.0kbits/s speed=0.0109x elapsed=0:03:19.58    \nframe=   54 fps=0.3 q=35.5 size=     512KiB time=00:00:02.16 bitrate=1936.0kbits/s speed=0.0108x elapsed=0:03:20.10    \nframe=   55 fps=0.3 q=38.1 size=     512KiB time=00:00:02.20 bitrate=1899.5kbits/s speed=0.011x elapsed=0:03:20.60    \nframe=   55 fps=0.3 q=38.1 size=     512KiB time=00:00:02.20 bitrate=1899.5kbits/s speed=0.011x elapsed=0:03:21.12    \nframe=   55 fps=0.3 q=38.1 size=     512KiB time=00:00:02.20 bitrate=1899.5kbits/s speed=0.011x elapsed=0:03:21.63    \nframe=   55 fps=0.3 q=38.1 size=     512KiB time=00:00:02.20 bitrate=1899.5kbits/s speed=0.0109x elapsed=0:03:22.15    \nframe=   55 fps=0.3 q=38.1 size=     512KiB time=00:00:02.20 bitrate=1899.5kbits/s speed=0.0109x elapsed=0:03:22.67    \nframe=   55 fps=0.3 q=38.1 size=     512KiB time=00:00:02.20 bitrate=1899.5kbits/s speed=0.0109x elapsed=0:03:23.19    \nframe=   55 fps=0.3 q=38.1 size=     512KiB time=00:00:02.20 bitrate=1899.5kbits/s speed=0.0108x elapsed=0:03:23.72    \nframe=   55 fps=0.3 q=38.1 size=     512KiB time=00:00:02.20 bitrate=1899.5kbits/s speed=0.0108x elapsed=0:03:24.23    \nframe=   56 fps=0.3 q=37.9 size=     512KiB time=00:00:02.25 bitrate=1864.3kbits/s speed=0.011x elapsed=0:03:24.74    \nframe=   56 fps=0.3 q=37.9 size=     512KiB time=00:00:02.25 bitrate=1864.3kbits/s speed=0.011x elapsed=0:03:25.27    \nframe=   56 fps=0.3 q=37.9 size=     512KiB time=00:00:02.25 bitrate=1864.3kbits/s speed=0.0109x elapsed=0:03:25.79    \nframe=   56 fps=0.3 q=37.9 size=     512KiB time=00:00:02.25 bitrate=1864.3kbits/s speed=0.0109x elapsed=0:03:26.30    \nframe=   56 fps=0.3 q=37.9 size=     512KiB time=00:00:02.25 bitrate=1864.3kbits/s speed=0.0109x elapsed=0:03:26.82    \nframe=   56 fps=0.3 q=37.9 size=     512KiB time=00:00:02.25 bitrate=1864.3kbits/s speed=0.0109x elapsed=0:03:27.34    \nframe=   56 fps=0.3 q=37.9 size=     512KiB time=00:00:02.25 bitrate=1864.3kbits/s speed=0.0108x elapsed=0:03:27.85    \nframe=   56 fps=0.3 q=37.9 size=     512KiB time=00:00:02.25 bitrate=1864.3kbits/s speed=0.0108x elapsed=0:03:28.37    \nframe=   57 fps=0.3 q=33.8 size=     512KiB time=00:00:02.29 bitrate=1830.4kbits/s speed=0.011x elapsed=0:03:28.89    \nframe=   57 fps=0.3 q=33.8 size=     512KiB time=00:00:02.29 bitrate=1830.4kbits/s speed=0.0109x elapsed=0:03:29.40    \nframe=   57 fps=0.3 q=33.8 size=     512KiB time=00:00:02.29 bitrate=1830.4kbits/s speed=0.0109x elapsed=0:03:29.92    \nframe=   57 fps=0.3 q=33.8 size=     512KiB time=00:00:02.29 bitrate=1830.4kbits/s speed=0.0109x elapsed=0:03:30.44    \nframe=   57 fps=0.3 q=33.8 size=     512KiB time=00:00:02.29 bitrate=1830.4kbits/s speed=0.0109x elapsed=0:03:30.94    \nframe=   58 fps=0.3 q=35.5 size=     512KiB time=00:00:02.33 bitrate=1797.7kbits/s speed=0.011x elapsed=0:03:31.46    \nframe=   58 fps=0.3 q=35.5 size=     512KiB time=00:00:02.33 bitrate=1797.7kbits/s speed=0.011x elapsed=0:03:31.99    \nframe=   58 fps=0.3 q=35.5 size=     512KiB time=00:00:02.33 bitrate=1797.7kbits/s speed=0.011x elapsed=0:03:32.51    \nframe=   58 fps=0.3 q=35.5 size=     512KiB time=00:00:02.33 bitrate=1797.7kbits/s speed=0.011x elapsed=0:03:33.03    \nframe=   58 fps=0.3 q=35.5 size=     512KiB time=00:00:02.33 bitrate=1797.7kbits/s speed=0.0109x elapsed=0:03:33.55    \nframe=   58 fps=0.3 q=35.5 size=     512KiB time=00:00:02.33 bitrate=1797.7kbits/s speed=0.0109x elapsed=0:03:34.05    \nframe=   58 fps=0.3 q=35.5 size=     512KiB time=00:00:02.33 bitrate=1797.7kbits/s speed=0.0109x elapsed=0:03:34.58    \nframe=   58 fps=0.3 q=35.5 size=     512KiB time=00:00:02.33 bitrate=1797.7kbits/s speed=0.0108x elapsed=0:03:35.09    \nframe=   58 fps=0.3 q=35.5 size=     512KiB time=00:00:02.33 bitrate=1797.7kbits/s speed=0.0108x elapsed=0:03:35.61    \nframe=   59 fps=0.3 q=38.0 size=     512KiB time=00:00:02.37 bitrate=1766.2kbits/s speed=0.011x elapsed=0:03:36.12    \nframe=   59 fps=0.3 q=38.0 size=     512KiB time=00:00:02.37 bitrate=1766.2kbits/s speed=0.011x elapsed=0:03:36.63    \nframe=   59 fps=0.3 q=38.0 size=     512KiB time=00:00:02.37 bitrate=1766.2kbits/s speed=0.0109x elapsed=0:03:37.15    \nframe=   59 fps=0.3 q=38.0 size=     512KiB time=00:00:02.37 bitrate=1766.2kbits/s speed=0.0109x elapsed=0:03:37.67    \nframe=   59 fps=0.3 q=38.0 size=     512KiB time=00:00:02.37 bitrate=1766.2kbits/s speed=0.0109x elapsed=0:03:38.18    \nframe=   60 fps=0.3 q=38.1 size=     512KiB time=00:00:02.41 bitrate=1735.7kbits/s speed=0.011x elapsed=0:03:38.70    \nframe=   60 fps=0.3 q=38.1 size=     512KiB time=00:00:02.41 bitrate=1735.7kbits/s speed=0.011x elapsed=0:03:39.21    \nframe=   60 fps=0.3 q=38.1 size=     512KiB time=00:00:02.41 bitrate=1735.7kbits/s speed=0.011x elapsed=0:03:39.72    \nframe=   60 fps=0.3 q=38.1 size=     512KiB time=00:00:02.41 bitrate=1735.7kbits/s speed=0.011x elapsed=0:03:40.24    \nframe=   60 fps=0.3 q=38.1 size=     512KiB time=00:00:02.41 bitrate=1735.7kbits/s speed=0.0109x elapsed=0:03:40.77    \nframe=   60 fps=0.3 q=38.1 size=     512KiB time=00:00:02.41 bitrate=1735.7kbits/s speed=0.0109x elapsed=0:03:41.29    \nframe=   60 fps=0.3 q=38.1 size=     512KiB time=00:00:02.41 bitrate=1735.7kbits/s speed=0.0109x elapsed=0:03:41.80    \nframe=   60 fps=0.3 q=38.1 size=     512KiB time=00:00:02.41 bitrate=1735.7kbits/s speed=0.0109x elapsed=0:03:42.32    \nframe=   60 fps=0.3 q=38.1 size=     512KiB time=00:00:02.41 bitrate=1735.7kbits/s speed=0.0108x elapsed=0:03:42.84    \nframe=   60 fps=0.3 q=38.1 size=     512KiB time=00:00:02.41 bitrate=1735.7kbits/s speed=0.0108x elapsed=0:03:43.35    \nframe=   60 fps=0.3 q=38.1 size=     512KiB time=00:00:02.41 bitrate=1735.7kbits/s speed=0.0108x elapsed=0:03:43.89    \nframe=   60 fps=0.3 q=38.1 size=     512KiB time=00:00:02.41 bitrate=1735.7kbits/s speed=0.0108x elapsed=0:03:44.41    \nframe=   60 fps=0.3 q=38.1 size=     512KiB time=00:00:02.41 bitrate=1735.7kbits/s speed=0.0107x elapsed=0:03:44.93    \nframe=   60 fps=0.3 q=38.1 size=     512KiB time=00:00:02.41 bitrate=1735.7kbits/s speed=0.0107x elapsed=0:03:45.45    \nframe=   60 fps=0.3 q=38.1 size=     512KiB time=00:00:02.41 bitrate=1735.7kbits/s speed=0.0107x elapsed=0:03:45.98    \nframe=   60 fps=0.3 q=38.1 size=     512KiB time=00:00:02.41 bitrate=1735.7kbits/s speed=0.0107x elapsed=0:03:46.51    \nframe=   61 fps=0.3 q=33.5 size=     512KiB time=00:00:02.45 bitrate=1706.3kbits/s speed=0.0108x elapsed=0:03:47.04    \nframe=   61 fps=0.3 q=33.5 size=     512KiB time=00:00:02.45 bitrate=1706.3kbits/s speed=0.0108x elapsed=0:03:47.56    \nframe=   61 fps=0.3 q=33.5 size=     512KiB time=00:00:02.45 bitrate=1706.3kbits/s speed=0.0108x elapsed=0:03:48.07    \nframe=   61 fps=0.3 q=33.5 size=     512KiB time=00:00:02.45 bitrate=1706.3kbits/s speed=0.0108x elapsed=0:03:48.59    \nframe=   61 fps=0.3 q=33.5 size=     512KiB time=00:00:02.45 bitrate=1706.3kbits/s speed=0.0107x elapsed=0:03:49.12    \nframe=   61 fps=0.3 q=33.5 size=     512KiB time=00:00:02.45 bitrate=1706.3kbits/s speed=0.0107x elapsed=0:03:49.64    \nframe=   61 fps=0.3 q=33.5 size=     512KiB time=00:00:02.45 bitrate=1706.3kbits/s speed=0.0107x elapsed=0:03:50.15    \nframe=   61 fps=0.3 q=33.5 size=     512KiB time=00:00:02.45 bitrate=1706.3kbits/s speed=0.0107x elapsed=0:03:50.67    \nframe=   61 fps=0.3 q=33.5 size=     512KiB time=00:00:02.45 bitrate=1706.3kbits/s speed=0.0106x elapsed=0:03:51.18    \nframe=   61 fps=0.3 q=33.5 size=     512KiB time=00:00:02.45 bitrate=1706.3kbits/s speed=0.0106x elapsed=0:03:51.70    \nframe=   61 fps=0.3 q=33.5 size=     512KiB time=00:00:02.45 bitrate=1706.3kbits/s speed=0.0106x elapsed=0:03:52.21    \nframe=   62 fps=0.3 q=35.4 size=     512KiB time=00:00:02.50 bitrate=1677.9kbits/s speed=0.0107x elapsed=0:03:52.74    \nframe=   62 fps=0.3 q=35.4 size=     512KiB time=00:00:02.50 bitrate=1677.9kbits/s speed=0.0107x elapsed=0:03:53.25    \nframe=   62 fps=0.3 q=35.4 size=     512KiB time=00:00:02.50 bitrate=1677.9kbits/s speed=0.0107x elapsed=0:03:53.76    \nframe=   62 fps=0.3 q=35.4 size=     512KiB time=00:00:02.50 bitrate=1677.9kbits/s speed=0.0107x elapsed=0:03:54.28    \nframe=   62 fps=0.3 q=35.4 size=     512KiB time=00:00:02.50 bitrate=1677.9kbits/s speed=0.0106x elapsed=0:03:54.79    \nframe=   62 fps=0.3 q=35.4 size=     512KiB time=00:00:02.50 bitrate=1677.9kbits/s speed=0.0106x elapsed=0:03:55.31    \nframe=   62 fps=0.3 q=35.4 size=     512KiB time=00:00:02.50 bitrate=1677.9kbits/s speed=0.0106x elapsed=0:03:55.82    \nframe=   62 fps=0.3 q=35.4 size=     512KiB time=00:00:02.50 bitrate=1677.9kbits/s speed=0.0106x elapsed=0:03:56.34    \nframe=   62 fps=0.3 q=35.4 size=     512KiB time=00:00:02.50 bitrate=1677.9kbits/s speed=0.0106x elapsed=0:03:56.85    \nframe=   62 fps=0.3 q=35.4 size=     512KiB time=00:00:02.50 bitrate=1677.9kbits/s speed=0.0105x elapsed=0:03:57.37    \nframe=   62 fps=0.3 q=35.4 size=     512KiB time=00:00:02.50 bitrate=1677.9kbits/s speed=0.0105x elapsed=0:03:57.88    \nframe=   62 fps=0.3 q=35.4 size=     512KiB time=00:00:02.50 bitrate=1677.9kbits/s speed=0.0105x elapsed=0:03:58.41    \nframe=   62 fps=0.3 q=35.4 size=     512KiB time=00:00:02.50 bitrate=1677.9kbits/s speed=0.0105x elapsed=0:03:58.92    \nframe=   63 fps=0.3 q=38.2 size=     512KiB time=00:00:02.54 bitrate=1650.4kbits/s speed=0.0106x elapsed=0:03:59.44    \nframe=   63 fps=0.3 q=38.2 size=     512KiB time=00:00:02.54 bitrate=1650.4kbits/s speed=0.0106x elapsed=0:03:59.97    \nframe=   63 fps=0.3 q=38.2 size=     512KiB time=00:00:02.54 bitrate=1650.4kbits/s speed=0.0106x elapsed=0:04:00.48    \nframe=   63 fps=0.3 q=38.2 size=     512KiB time=00:00:02.54 bitrate=1650.4kbits/s speed=0.0105x elapsed=0:04:00.99    \nframe=   63 fps=0.3 q=38.2 size=     512KiB time=00:00:02.54 bitrate=1650.4kbits/s speed=0.0105x elapsed=0:04:01.52    \nframe=   64 fps=0.3 q=38.1 size=     512KiB time=00:00:02.58 bitrate=1623.7kbits/s speed=0.0107x elapsed=0:04:02.04    \nframe=   64 fps=0.3 q=38.1 size=     512KiB time=00:00:02.58 bitrate=1623.7kbits/s speed=0.0107x elapsed=0:04:02.55    \nframe=   64 fps=0.3 q=38.1 size=     512KiB time=00:00:02.58 bitrate=1623.7kbits/s speed=0.0106x elapsed=0:04:03.07    \nframe=   64 fps=0.3 q=38.1 size=     512KiB time=00:00:02.58 bitrate=1623.7kbits/s speed=0.0106x elapsed=0:04:03.59    \nframe=   65 fps=0.3 q=33.6 size=     512KiB time=00:00:02.62 bitrate=1598.0kbits/s speed=0.0108x elapsed=0:04:04.12    \nframe=   65 fps=0.3 q=33.6 size=     512KiB time=00:00:02.62 bitrate=1598.0kbits/s speed=0.0107x elapsed=0:04:04.63    \nframe=   65 fps=0.3 q=33.6 size=     512KiB time=00:00:02.62 bitrate=1598.0kbits/s speed=0.0107x elapsed=0:04:05.16    \nframe=   65 fps=0.3 q=33.6 size=     512KiB time=00:00:02.62 bitrate=1598.0kbits/s speed=0.0107x elapsed=0:04:05.66    \nframe=   66 fps=0.3 q=35.8 size=     512KiB time=00:00:02.66 bitrate=1573.0kbits/s speed=0.0108x elapsed=0:04:06.19    \nframe=   66 fps=0.3 q=35.8 size=     512KiB time=00:00:02.66 bitrate=1573.0kbits/s speed=0.0108x elapsed=0:04:06.70    \nframe=   66 fps=0.3 q=35.8 size=     512KiB time=00:00:02.66 bitrate=1573.0kbits/s speed=0.0108x elapsed=0:04:07.22    \nframe=   66 fps=0.3 q=35.8 size=     512KiB time=00:00:02.66 bitrate=1573.0kbits/s speed=0.0108x elapsed=0:04:07.75    \nframe=   67 fps=0.3 q=38.4 size=     512KiB time=00:00:02.70 bitrate=1548.8kbits/s speed=0.0109x elapsed=0:04:08.26    \nframe=   67 fps=0.3 q=38.4 size=     512KiB time=00:00:02.70 bitrate=1548.8kbits/s speed=0.0109x elapsed=0:04:08.77    \nframe=   67 fps=0.3 q=38.4 size=     512KiB time=00:00:02.70 bitrate=1548.8kbits/s speed=0.0109x elapsed=0:04:09.30    \nframe=   67 fps=0.3 q=38.4 size=     512KiB time=00:00:02.70 bitrate=1548.8kbits/s speed=0.0108x elapsed=0:04:09.81    \nframe=   67 fps=0.3 q=38.4 size=     512KiB time=00:00:02.70 bitrate=1548.8kbits/s speed=0.0108x elapsed=0:04:10.32    \nframe=   67 fps=0.3 q=38.4 size=     512KiB time=00:00:02.70 bitrate=1548.8kbits/s speed=0.0108x elapsed=0:04:10.85    \nframe=   67 fps=0.3 q=38.4 size=     512KiB time=00:00:02.70 bitrate=1548.8kbits/s speed=0.0108x elapsed=0:04:11.36    \nframe=   68 fps=0.3 q=37.4 size=     512KiB time=00:00:02.75 bitrate=1525.3kbits/s speed=0.0109x elapsed=0:04:11.87    \nframe=   68 fps=0.3 q=37.4 size=     512KiB time=00:00:02.75 bitrate=1525.3kbits/s speed=0.0109x elapsed=0:04:12.39    \nframe=   68 fps=0.3 q=37.4 size=     512KiB time=00:00:02.75 bitrate=1525.3kbits/s speed=0.0109x elapsed=0:04:12.90    \nframe=   68 fps=0.3 q=37.4 size=     512KiB time=00:00:02.75 bitrate=1525.3kbits/s speed=0.0109x elapsed=0:04:13.42    \nframe=   68 fps=0.3 q=37.4 size=     512KiB time=00:00:02.75 bitrate=1525.3kbits/s speed=0.0108x elapsed=0:04:13.94    \nframe=   69 fps=0.3 q=33.6 size=     512KiB time=00:00:02.79 bitrate=1502.6kbits/s speed=0.011x elapsed=0:04:14.45    \nframe=   69 fps=0.3 q=33.6 size=     512KiB time=00:00:02.79 bitrate=1502.6kbits/s speed=0.0109x elapsed=0:04:14.97    \nframe=   70 fps=0.3 q=35.5 size=     512KiB time=00:00:02.83 bitrate=1480.5kbits/s speed=0.0111x elapsed=0:04:15.48    \nframe=   70 fps=0.3 q=35.5 size=     512KiB time=00:00:02.83 bitrate=1480.5kbits/s speed=0.0111x elapsed=0:04:15.99    \nframe=   70 fps=0.3 q=35.5 size=     512KiB time=00:00:02.83 bitrate=1480.5kbits/s speed=0.011x elapsed=0:04:16.52    \nframe=   70 fps=0.3 q=35.5 size=     512KiB time=00:00:02.83 bitrate=1480.5kbits/s speed=0.011x elapsed=0:04:17.03    \nframe=   70 fps=0.3 q=35.5 size=     512KiB time=00:00:02.83 bitrate=1480.5kbits/s speed=0.011x elapsed=0:04:17.55    \nframe=   70 fps=0.3 q=35.5 size=     512KiB time=00:00:02.83 bitrate=1480.5kbits/s speed=0.011x elapsed=0:04:18.06    \nframe=   70 fps=0.3 q=35.5 size=     512KiB time=00:00:02.83 bitrate=1480.5kbits/s speed=0.011x elapsed=0:04:18.58    \nframe=   70 fps=0.3 q=35.5 size=     512KiB time=00:00:02.83 bitrate=1480.5kbits/s speed=0.0109x elapsed=0:04:19.09    \nframe=   70 fps=0.3 q=35.5 size=     512KiB time=00:00:02.83 bitrate=1480.5kbits/s speed=0.0109x elapsed=0:04:19.61    \nframe=   71 fps=0.3 q=38.0 size=     512KiB time=00:00:02.87 bitrate=1459.0kbits/s speed=0.011x elapsed=0:04:20.19    \nframe=   71 fps=0.3 q=38.0 size=     512KiB time=00:00:02.87 bitrate=1459.0kbits/s speed=0.011x elapsed=0:04:20.76    \nframe=   71 fps=0.3 q=38.0 size=     512KiB time=00:00:02.87 bitrate=1459.0kbits/s speed=0.011x elapsed=0:04:21.28    \nframe=   71 fps=0.3 q=38.0 size=     512KiB time=00:00:02.87 bitrate=1459.0kbits/s speed=0.011x elapsed=0:04:21.80    \nframe=   71 fps=0.3 q=38.0 size=     512KiB time=00:00:02.87 bitrate=1459.0kbits/s speed=0.011x elapsed=0:04:22.33    \nframe=   71 fps=0.3 q=38.0 size=     512KiB time=00:00:02.87 bitrate=1459.0kbits/s speed=0.0109x elapsed=0:04:22.86    \nframe=   72 fps=0.3 q=37.9 size=     512KiB time=00:00:02.91 bitrate=1438.2kbits/s speed=0.0111x elapsed=0:04:23.40    \nframe=   72 fps=0.3 q=37.9 size=     512KiB time=00:00:02.91 bitrate=1438.2kbits/s speed=0.0111x elapsed=0:04:23.92    \nframe=   72 fps=0.3 q=37.9 size=     512KiB time=00:00:02.91 bitrate=1438.2kbits/s speed=0.011x elapsed=0:04:24.44    \nframe=   72 fps=0.3 q=37.9 size=     512KiB time=00:00:02.91 bitrate=1438.2kbits/s speed=0.011x elapsed=0:04:24.96    \nframe=   72 fps=0.3 q=37.9 size=     512KiB time=00:00:02.91 bitrate=1438.2kbits/s speed=0.011x elapsed=0:04:25.48    \nframe=   72 fps=0.3 q=37.9 size=     512KiB time=00:00:02.91 bitrate=1438.2kbits/s speed=0.011x elapsed=0:04:26.01    \nframe=   73 fps=0.3 q=33.6 size=     512KiB time=00:00:02.95 bitrate=1417.9kbits/s speed=0.0111x elapsed=0:04:26.53    \nframe=   73 fps=0.3 q=33.6 size=     512KiB time=00:00:02.95 bitrate=1417.9kbits/s speed=0.0111x elapsed=0:04:27.07    \nframe=   74 fps=0.3 q=35.4 size=     512KiB time=00:00:03.00 bitrate=1398.2kbits/s speed=0.0112x elapsed=0:04:27.59    \nframe=   74 fps=0.3 q=35.4 size=     512KiB time=00:00:03.00 bitrate=1398.2kbits/s speed=0.0112x elapsed=0:04:28.11    \nframe=   74 fps=0.3 q=35.4 size=     512KiB time=00:00:03.00 bitrate=1398.2kbits/s speed=0.0112x elapsed=0:04:28.65    \nframe=   74 fps=0.3 q=35.4 size=     512KiB time=00:00:03.00 bitrate=1398.2kbits/s speed=0.0111x elapsed=0:04:29.22    \nframe=   74 fps=0.3 q=35.4 size=     512KiB time=00:00:03.00 bitrate=1398.2kbits/s speed=0.0111x elapsed=0:04:29.75    \nframe=   75 fps=0.3 q=37.9 size=     512KiB time=00:00:03.04 bitrate=1379.1kbits/s speed=0.0113x elapsed=0:04:30.29    \nframe=   75 fps=0.3 q=37.9 size=     512KiB time=00:00:03.04 bitrate=1379.1kbits/s speed=0.0112x elapsed=0:04:30.83    \nframe=   75 fps=0.3 q=37.9 size=     512KiB time=00:00:03.04 bitrate=1379.1kbits/s speed=0.0112x elapsed=0:04:31.36    \nframe=   75 fps=0.3 q=37.9 size=     512KiB time=00:00:03.04 bitrate=1379.1kbits/s speed=0.0112x elapsed=0:04:31.87    \nframe=   75 fps=0.3 q=37.9 size=     512KiB time=00:00:03.04 bitrate=1379.1kbits/s speed=0.0112x elapsed=0:04:32.40    \nframe=   75 fps=0.3 q=37.9 size=     512KiB time=00:00:03.04 bitrate=1379.1kbits/s speed=0.0111x elapsed=0:04:32.94    \nframe=   75 fps=0.3 q=37.9 size=     512KiB time=00:00:03.04 bitrate=1379.1kbits/s speed=0.0111x elapsed=0:04:33.47    \nframe=   75 fps=0.3 q=37.9 size=     512KiB time=00:00:03.04 bitrate=1379.1kbits/s speed=0.0111x elapsed=0:04:33.99    \nframe=   75 fps=0.3 q=37.9 size=     512KiB time=00:00:03.04 bitrate=1379.1kbits/s speed=0.0111x elapsed=0:04:34.51    \nframe=   75 fps=0.3 q=37.9 size=     512KiB time=00:00:03.04 bitrate=1379.1kbits/s speed=0.0111x elapsed=0:04:35.03    \nframe=   76 fps=0.3 q=37.9 size=     512KiB time=00:00:03.08 bitrate=1360.4kbits/s speed=0.0112x elapsed=0:04:35.57    \nframe=   76 fps=0.3 q=37.9 size=     512KiB time=00:00:03.08 bitrate=1360.4kbits/s speed=0.0112x elapsed=0:04:36.09    \nframe=   76 fps=0.3 q=37.9 size=     512KiB time=00:00:03.08 bitrate=1360.4kbits/s speed=0.0111x elapsed=0:04:36.64    \nframe=   77 fps=0.3 q=33.1 size=     512KiB time=00:00:03.12 bitrate=1342.3kbits/s speed=0.0113x elapsed=0:04:37.23    \nframe=   77 fps=0.3 q=33.1 size=     512KiB time=00:00:03.12 bitrate=1342.3kbits/s speed=0.0113x elapsed=0:04:37.76    \nframe=   77 fps=0.3 q=33.1 size=     512KiB time=00:00:03.12 bitrate=1342.3kbits/s speed=0.0112x elapsed=0:04:38.31    \nframe=   78 fps=0.3 q=35.3 size=     512KiB time=00:00:03.16 bitrate=1324.6kbits/s speed=0.0114x elapsed=0:04:38.88    \nframe=   78 fps=0.3 q=35.3 size=     512KiB time=00:00:03.16 bitrate=1324.6kbits/s speed=0.0113x elapsed=0:04:39.40    \nframe=   78 fps=0.3 q=35.3 size=     512KiB time=00:00:03.16 bitrate=1324.6kbits/s speed=0.0113x elapsed=0:04:39.92    \nframe=   78 fps=0.3 q=35.3 size=     512KiB time=00:00:03.16 bitrate=1324.6kbits/s speed=0.0113x elapsed=0:04:40.44    \nframe=   78 fps=0.3 q=35.3 size=     512KiB time=00:00:03.16 bitrate=1324.6kbits/s speed=0.0113x elapsed=0:04:41.00    \nframe=   78 fps=0.3 q=35.3 size=     512KiB time=00:00:03.16 bitrate=1324.6kbits/s speed=0.0112x elapsed=0:04:41.54    \nframe=   78 fps=0.3 q=35.3 size=     512KiB time=00:00:03.16 bitrate=1324.6kbits/s speed=0.0112x elapsed=0:04:42.08    \nframe=   78 fps=0.3 q=35.3 size=     512KiB time=00:00:03.16 bitrate=1324.6kbits/s speed=0.0112x elapsed=0:04:42.63    \nframe=   79 fps=0.3 q=37.8 size=     768KiB time=00:00:03.20 bitrate=1961.1kbits/s speed=0.0113x elapsed=0:04:43.15    \nframe=   79 fps=0.3 q=37.8 size=     768KiB time=00:00:03.20 bitrate=1961.1kbits/s speed=0.0113x elapsed=0:04:43.67    \nframe=   79 fps=0.3 q=37.8 size=     768KiB time=00:00:03.20 bitrate=1961.1kbits/s speed=0.0113x elapsed=0:04:44.23    \nframe=   79 fps=0.3 q=37.8 size=     768KiB time=00:00:03.20 bitrate=1961.1kbits/s speed=0.0113x elapsed=0:04:44.77    \nframe=   80 fps=0.3 q=37.7 size=     768KiB time=00:00:03.25 bitrate=1935.9kbits/s speed=0.0114x elapsed=0:04:45.27    \nframe=   80 fps=0.3 q=37.7 size=     768KiB time=00:00:03.25 bitrate=1935.9kbits/s speed=0.0114x elapsed=0:04:45.82    \nframe=   80 fps=0.3 q=37.7 size=     768KiB time=00:00:03.25 bitrate=1935.9kbits/s speed=0.0113x elapsed=0:04:46.37    \nframe=   80 fps=0.3 q=37.7 size=     768KiB time=00:00:03.25 bitrate=1935.9kbits/s speed=0.0113x elapsed=0:04:46.92    \nframe=   81 fps=0.3 q=33.1 size=     768KiB time=00:00:03.29 bitrate=1911.4kbits/s speed=0.0115x elapsed=0:04:47.48    \nframe=   81 fps=0.3 q=33.1 size=     768KiB time=00:00:03.29 bitrate=1911.4kbits/s speed=0.0114x elapsed=0:04:48.03    \nframe=   81 fps=0.3 q=33.1 size=     768KiB time=00:00:03.29 bitrate=1911.4kbits/s speed=0.0114x elapsed=0:04:48.58    \nframe=   82 fps=0.3 q=35.2 size=     768KiB time=00:00:03.33 bitrate=1887.5kbits/s speed=0.0115x elapsed=0:04:49.08    \nframe=   82 fps=0.3 q=35.2 size=     768KiB time=00:00:03.33 bitrate=1887.5kbits/s speed=0.0115x elapsed=0:04:49.61    \nframe=   82 fps=0.3 q=35.2 size=     768KiB time=00:00:03.33 bitrate=1887.5kbits/s speed=0.0115x elapsed=0:04:50.12    \nframe=   82 fps=0.3 q=35.2 size=     768KiB time=00:00:03.33 bitrate=1887.5kbits/s speed=0.0115x elapsed=0:04:50.68    \nframe=   82 fps=0.3 q=35.2 size=     768KiB time=00:00:03.33 bitrate=1887.5kbits/s speed=0.0114x elapsed=0:04:51.20    \nframe=   83 fps=0.3 q=37.9 size=     768KiB time=00:00:03.37 bitrate=1864.2kbits/s speed=0.0116x elapsed=0:04:51.74    \nframe=   83 fps=0.3 q=37.9 size=     768KiB time=00:00:03.37 bitrate=1864.2kbits/s speed=0.0115x elapsed=0:04:52.30    \nframe=   83 fps=0.3 q=37.9 size=     768KiB time=00:00:03.37 bitrate=1864.2kbits/s speed=0.0115x elapsed=0:04:52.84    \nframe=   83 fps=0.3 q=37.9 size=     768KiB time=00:00:03.37 bitrate=1864.2kbits/s speed=0.0115x elapsed=0:04:53.37    \nframe=   83 fps=0.3 q=37.9 size=     768KiB time=00:00:03.37 bitrate=1864.2kbits/s speed=0.0115x elapsed=0:04:53.88    \nframe=   83 fps=0.3 q=37.9 size=     768KiB time=00:00:03.37 bitrate=1864.2kbits/s speed=0.0115x elapsed=0:04:54.40    \nframe=   83 fps=0.3 q=37.9 size=     768KiB time=00:00:03.37 bitrate=1864.2kbits/s speed=0.0114x elapsed=0:04:54.97    \nframe=   84 fps=0.3 q=37.8 size=     768KiB time=00:00:03.41 bitrate=1841.5kbits/s speed=0.0116x elapsed=0:04:55.50    \nframe=   84 fps=0.3 q=37.8 size=     768KiB time=00:00:03.41 bitrate=1841.5kbits/s speed=0.0115x elapsed=0:04:56.05    \nframe=   84 fps=0.3 q=37.8 size=     768KiB time=00:00:03.41 bitrate=1841.5kbits/s speed=0.0115x elapsed=0:04:56.60    \nframe=   85 fps=0.3 q=32.9 size=     768KiB time=00:00:03.45 bitrate=1819.3kbits/s speed=0.0116x elapsed=0:04:57.18    \nframe=   85 fps=0.3 q=32.9 size=     768KiB time=00:00:03.45 bitrate=1819.3kbits/s speed=0.0116x elapsed=0:04:57.69    \nframe=   86 fps=0.3 q=36.2 size=     768KiB time=00:00:03.50 bitrate=1797.7kbits/s speed=0.0117x elapsed=0:04:58.21    \nframe=   87 fps=0.3 q=37.9 size=     768KiB time=00:00:03.54 bitrate=1776.5kbits/s speed=0.0119x elapsed=0:04:58.74    \nframe=   88 fps=0.3 q=37.3 size=     768KiB time=00:00:03.58 bitrate=1755.9kbits/s speed=0.012x elapsed=0:04:59.27    \nframe=   88 fps=0.3 q=37.3 size=     768KiB time=00:00:03.58 bitrate=1755.9kbits/s speed=0.012x elapsed=0:04:59.77    \nframe=   88 fps=0.3 q=37.3 size=     768KiB time=00:00:03.58 bitrate=1755.9kbits/s speed=0.0119x elapsed=0:05:00.29    \nframe=   89 fps=0.3 q=37.6 size=     768KiB time=00:00:03.62 bitrate=1735.7kbits/s speed=0.0121x elapsed=0:05:00.81    \nframe=   89 fps=0.3 q=37.6 size=     768KiB time=00:00:03.62 bitrate=1735.7kbits/s speed=0.012x elapsed=0:05:01.34    \nframe=   90 fps=0.3 q=32.8 size=     768KiB time=00:00:03.66 bitrate=1715.9kbits/s speed=0.0121x elapsed=0:05:01.86    \nframe=   92 fps=0.3 q=37.9 size=     768KiB time=00:00:03.75 bitrate=1677.8kbits/s speed=0.0124x elapsed=0:05:02.38    \nframe=   92 fps=0.3 q=37.9 size=     768KiB time=00:00:03.75 bitrate=1677.8kbits/s speed=0.0124x elapsed=0:05:02.91    \nframe=   93 fps=0.3 q=37.8 size=     768KiB time=00:00:03.79 bitrate=1659.4kbits/s speed=0.0125x elapsed=0:05:03.41    \nframe=   93 fps=0.3 q=37.8 size=     768KiB time=00:00:03.79 bitrate=1659.4kbits/s speed=0.0125x elapsed=0:05:03.94    \nframe=   94 fps=0.3 q=37.7 size=     768KiB time=00:00:03.83 bitrate=1641.3kbits/s speed=0.0126x elapsed=0:05:04.46    \nframe=   95 fps=0.3 q=33.2 size=     768KiB time=00:00:03.87 bitrate=1623.7kbits/s speed=0.0127x elapsed=0:05:04.98    \nframe=   96 fps=0.3 q=35.5 size=     768KiB time=00:00:03.91 bitrate=1606.4kbits/s speed=0.0128x elapsed=0:05:05.50    \nframe=   96 fps=0.3 q=35.5 size=     768KiB time=00:00:03.91 bitrate=1606.4kbits/s speed=0.0128x elapsed=0:05:06.01    \nframe=   97 fps=0.3 q=37.8 size=     768KiB time=00:00:03.95 bitrate=1589.5kbits/s speed=0.0129x elapsed=0:05:06.53    \nframe=   97 fps=0.3 q=37.8 size=     768KiB time=00:00:03.95 bitrate=1589.5kbits/s speed=0.0129x elapsed=0:05:07.05    \nframe=   98 fps=0.3 q=37.7 size=     768KiB time=00:00:04.00 bitrate=1573.0kbits/s speed=0.013x elapsed=0:05:07.55    \nframe=   99 fps=0.3 q=32.8 size=     768KiB time=00:00:04.04 bitrate=1556.7kbits/s speed=0.0131x elapsed=0:05:08.08    \nframe=  100 fps=0.3 q=35.4 size=     768KiB time=00:00:04.08 bitrate=1540.9kbits/s speed=0.0132x elapsed=0:05:08.61    \nframe=  101 fps=0.3 q=37.7 size=     768KiB time=00:00:04.12 bitrate=1525.3kbits/s speed=0.0133x elapsed=0:05:09.12    \nframe=  101 fps=0.3 q=37.7 size=     768KiB time=00:00:04.12 bitrate=1525.3kbits/s speed=0.0133x elapsed=0:05:09.64    \nframe=  102 fps=0.3 q=37.6 size=     768KiB time=00:00:04.16 bitrate=1510.0kbits/s speed=0.0134x elapsed=0:05:10.15    \nframe=  103 fps=0.3 q=33.0 size=     768KiB time=00:00:04.20 bitrate=1495.1kbits/s speed=0.0135x elapsed=0:05:10.67    \nframe=  104 fps=0.3 q=35.1 size=    1024KiB time=00:00:04.25 bitrate=1973.9kbits/s speed=0.0137x elapsed=0:05:11.18    \nframe=  104 fps=0.3 q=35.1 size=    1024KiB time=00:00:04.25 bitrate=1973.9kbits/s speed=0.0136x elapsed=0:05:11.70    \nframe=  105 fps=0.3 q=37.6 size=    1024KiB time=00:00:04.29 bitrate=1954.7kbits/s speed=0.0137x elapsed=0:05:12.21    \nframe=  105 fps=0.3 q=37.6 size=    1024KiB time=00:00:04.29 bitrate=1954.7kbits/s speed=0.0137x elapsed=0:05:12.73    \nframe=  106 fps=0.3 q=37.0 size=    1024KiB time=00:00:04.33 bitrate=1935.9kbits/s speed=0.0138x elapsed=0:05:13.25    \nframe=  107 fps=0.3 q=33.0 size=    1024KiB time=00:00:04.37 bitrate=1917.5kbits/s speed=0.0139x elapsed=0:05:13.77    \nframe=  108 fps=0.3 q=35.2 size=    1024KiB time=00:00:04.41 bitrate=1899.4kbits/s speed=0.0141x elapsed=0:05:14.29    \nframe=  109 fps=0.3 q=37.5 size=    1024KiB time=00:00:04.45 bitrate=1881.6kbits/s speed=0.0142x elapsed=0:05:14.81    \nframe=  109 fps=0.3 q=37.5 size=    1024KiB time=00:00:04.45 bitrate=1881.6kbits/s speed=0.0141x elapsed=0:05:15.33    \nframe=  109 fps=0.3 q=37.5 size=    1024KiB time=00:00:04.45 bitrate=1881.6kbits/s speed=0.0141x elapsed=0:05:15.85    \nframe=  111 fps=0.4 q=32.9 size=    1024KiB time=00:00:04.54 bitrate=1847.1kbits/s speed=0.0144x elapsed=0:05:16.35    \nframe=  112 fps=0.4 q=35.1 size=    1024KiB time=00:00:04.58 bitrate=1830.3kbits/s speed=0.0145x elapsed=0:05:16.88    \nframe=  112 fps=0.4 q=35.1 size=    1024KiB time=00:00:04.58 bitrate=1830.3kbits/s speed=0.0144x elapsed=0:05:17.40    \nframe=  113 fps=0.4 q=37.5 size=    1024KiB time=00:00:04.62 bitrate=1813.8kbits/s speed=0.0145x elapsed=0:05:17.93    \nframe=  113 fps=0.4 q=37.5 size=    1024KiB time=00:00:04.62 bitrate=1813.8kbits/s speed=0.0145x elapsed=0:05:18.46    \nframe=  113 fps=0.4 q=37.5 size=    1024KiB time=00:00:04.62 bitrate=1813.8kbits/s speed=0.0145x elapsed=0:05:18.96    \nframe=  115 fps=0.4 q=32.8 size=    1024KiB time=00:00:04.70 bitrate=1781.7kbits/s speed=0.0147x elapsed=0:05:19.48    \nframe=  116 fps=0.4 q=35.1 size=    1024KiB time=00:00:04.75 bitrate=1766.1kbits/s speed=0.0148x elapsed=0:05:20.01    \nframe=  116 fps=0.4 q=35.1 size=    1024KiB time=00:00:04.75 bitrate=1766.1kbits/s speed=0.0148x elapsed=0:05:20.53    \nframe=  117 fps=0.4 q=37.6 size=    1024KiB time=00:00:04.79 bitrate=1750.7kbits/s speed=0.0149x elapsed=0:05:21.04    \nframe=  117 fps=0.4 q=37.6 size=    1024KiB time=00:00:04.79 bitrate=1750.7kbits/s speed=0.0149x elapsed=0:05:21.55    \nframe=  118 fps=0.4 q=37.4 size=    1024KiB time=00:00:04.83 bitrate=1735.6kbits/s speed=0.015x elapsed=0:05:22.07    \nframe=  119 fps=0.4 q=32.8 size=    1024KiB time=00:00:04.87 bitrate=1720.8kbits/s speed=0.0151x elapsed=0:05:22.59    \nframe=  120 fps=0.4 q=35.2 size=    1024KiB time=00:00:04.91 bitrate=1706.2kbits/s speed=0.0152x elapsed=0:05:23.11    \nframe=  121 fps=0.4 q=37.9 size=    1024KiB time=00:00:04.95 bitrate=1691.9kbits/s speed=0.0153x elapsed=0:05:23.61    \nframe=  121 fps=0.4 q=37.9 size=    1024KiB time=00:00:04.95 bitrate=1691.9kbits/s speed=0.0153x elapsed=0:05:24.14    \nframe=  122 fps=0.4 q=37.3 size=    1024KiB time=00:00:05.00 bitrate=1677.8kbits/s speed=0.0154x elapsed=0:05:24.65    \nframe=  122 fps=0.4 q=37.3 size=    1024KiB time=00:00:05.00 bitrate=1677.8kbits/s speed=0.0154x elapsed=0:05:25.18    \nframe=  124 fps=0.4 q=35.0 size=    1024KiB time=00:00:05.04 bitrate=1663.9kbits/s speed=0.0155x elapsed=0:05:25.68    \nframe=  124 fps=0.4 q=35.0 size=    1024KiB time=00:00:05.08 bitrate=1650.3kbits/s speed=0.0156x elapsed=0:05:26.22    \nframe=  125 fps=0.4 q=37.6 size=    1024KiB time=00:00:05.12 bitrate=1636.9kbits/s speed=0.0157x elapsed=0:05:26.74    \nframe=  125 fps=0.4 q=37.6 size=    1024KiB time=00:00:05.12 bitrate=1636.9kbits/s speed=0.0157x elapsed=0:05:27.24    \nframe=  126 fps=0.4 q=37.9 size=    1024KiB time=00:00:05.16 bitrate=1623.7kbits/s speed=0.0158x elapsed=0:05:27.76    \nframe=  126 fps=0.4 q=37.9 size=    1024KiB time=00:00:05.16 bitrate=1623.7kbits/s speed=0.0157x elapsed=0:05:28.28    \nframe=  128 fps=0.4 q=35.0 size=    1024KiB time=00:00:05.25 bitrate=1597.9kbits/s speed=0.016x elapsed=0:05:28.79    \nframe=  128 fps=0.4 q=35.0 size=    1024KiB time=00:00:05.25 bitrate=1597.9kbits/s speed=0.0159x elapsed=0:05:29.31    \nframe=  129 fps=0.4 q=37.6 size=    1280KiB time=00:00:05.29 bitrate=1981.6kbits/s speed=0.016x elapsed=0:05:29.82    \nframe=  130 fps=0.4 q=37.7 size=    1280KiB time=00:00:05.33 bitrate=1966.1kbits/s speed=0.0161x elapsed=0:05:30.34    \nframe=  131 fps=0.4 q=33.0 size=    1280KiB time=00:00:05.37 bitrate=1950.9kbits/s speed=0.0162x elapsed=0:05:30.85    \nframe=  131 fps=0.4 q=33.0 size=    1280KiB time=00:00:05.37 bitrate=1950.9kbits/s speed=0.0162x elapsed=0:05:31.37    \nframe=  132 fps=0.4 q=34.9 size=    1280KiB time=00:00:05.41 bitrate=1935.9kbits/s speed=0.0163x elapsed=0:05:31.89    \nframe=  132 fps=0.4 q=34.9 size=    1280KiB time=00:00:05.41 bitrate=1935.9kbits/s speed=0.0163x elapsed=0:05:32.42    \nframe=  133 fps=0.4 q=37.4 size=    1280KiB time=00:00:05.45 bitrate=1921.1kbits/s speed=0.0164x elapsed=0:05:32.95    \nframe=  134 fps=0.4 q=37.3 size=    1280KiB time=00:00:05.50 bitrate=1906.6kbits/s speed=0.0165x elapsed=0:05:33.46    \nframe=  135 fps=0.4 q=33.4 size=    1280KiB time=00:00:05.54 bitrate=1892.2kbits/s speed=0.0166x elapsed=0:05:33.98    \nframe=  136 fps=0.4 q=34.9 size=    1280KiB time=00:00:05.58 bitrate=1878.1kbits/s speed=0.0167x elapsed=0:05:34.49    \nframe=  137 fps=0.4 q=37.4 size=    1280KiB time=00:00:05.62 bitrate=1864.2kbits/s speed=0.0168x elapsed=0:05:35.02    \nframe=  138 fps=0.4 q=37.1 size=    1280KiB time=00:00:05.66 bitrate=1850.5kbits/s speed=0.0169x elapsed=0:05:35.53    \nframe=  139 fps=0.4 q=35.2 size=    1280KiB time=00:00:05.70 bitrate=1837.0kbits/s speed=0.017x elapsed=0:05:36.05    \nframe=  139 fps=0.4 q=35.2 size=    1280KiB time=00:00:05.70 bitrate=1837.0kbits/s speed=0.017x elapsed=0:05:36.57    \nframe=  141 fps=0.4 q=28.7 size=    1280KiB time=00:00:05.79 bitrate=1810.6kbits/s speed=0.0172x elapsed=0:05:37.09    \nframe=  142 fps=0.4 q=32.0 size=    1280KiB time=00:00:05.83 bitrate=1797.6kbits/s speed=0.0173x elapsed=0:05:37.63    \nframe=  145 fps=0.4 q=40.4 size=    1280KiB time=00:00:05.95 bitrate=1759.9kbits/s speed=0.0176x elapsed=0:05:38.16    \nframe=  146 fps=0.4 q=39.9 size=    1280KiB time=00:00:06.00 bitrate=1747.7kbits/s speed=0.0177x elapsed=0:05:38.68    \nframe=  147 fps=0.4 q=30.9 size=    1280KiB time=00:00:06.04 bitrate=1735.6kbits/s speed=0.0178x elapsed=0:05:39.20    \nframe=  149 fps=0.4 q=35.1 size=    1280KiB time=00:00:06.12 bitrate=1712.0kbits/s speed=0.018x elapsed=0:05:39.71    \nframe=  150 fps=0.4 q=34.6 size=    1280KiB time=00:00:06.16 bitrate=1700.5kbits/s speed=0.0181x elapsed=0:05:40.24    \nframe=  152 fps=0.4 q=33.3 size=    1280KiB time=00:00:06.25 bitrate=1677.8kbits/s speed=0.0183x elapsed=0:05:40.75    \nframe=  154 fps=0.5 q=34.2 size=    1536KiB time=00:00:06.33 bitrate=1986.8kbits/s speed=0.0186x elapsed=0:05:41.26    \nframe=  155 fps=0.5 q=29.7 size=    1536KiB time=00:00:06.37 bitrate=1973.8kbits/s speed=0.0187x elapsed=0:05:41.78    \nframe=  157 fps=0.5 q=34.8 size=    1536KiB time=00:00:06.45 bitrate=1948.4kbits/s speed=0.0189x elapsed=0:05:42.30    \nframe=  158 fps=0.5 q=34.2 size=    1536KiB time=00:00:06.50 bitrate=1935.9kbits/s speed=0.019x elapsed=0:05:42.82    \nframe=  160 fps=0.5 q=29.3 size=    1536KiB time=00:00:06.58 bitrate=1911.4kbits/s speed=0.0192x elapsed=0:05:43.34    \nframe=  162 fps=0.5 q=34.7 size=    1536KiB time=00:00:06.66 bitrate=1887.5kbits/s speed=0.0194x elapsed=0:05:43.85    \nframe=  164 fps=0.5 q=34.2 size=    1536KiB time=00:00:06.75 bitrate=1864.2kbits/s speed=0.0196x elapsed=0:05:44.37    \nframe=  165 fps=0.5 q=29.1 size=    1536KiB time=00:00:06.79 bitrate=1852.8kbits/s speed=0.0197x elapsed=0:05:44.90    \nframe=  167 fps=0.5 q=35.4 size=    1536KiB time=00:00:06.87 bitrate=1830.3kbits/s speed=0.0199x elapsed=0:05:45.42    \nframe=  169 fps=0.5 q=34.2 size=    1536KiB time=00:00:06.95 bitrate=1808.4kbits/s speed=0.0201x elapsed=0:05:45.94    \nframe=  170 fps=0.5 q=29.1 size=    1536KiB time=00:00:07.00 bitrate=1797.6kbits/s speed=0.0202x elapsed=0:05:46.46    \nframe=  173 fps=0.5 q=34.7 size=    1536KiB time=00:00:07.12 bitrate=1766.1kbits/s speed=0.0205x elapsed=0:05:46.97    \nframe=  174 fps=0.5 q=33.8 size=    1536KiB time=00:00:07.16 bitrate=1755.8kbits/s speed=0.0206x elapsed=0:05:47.50    \nframe=  175 fps=0.5 q=28.9 size=    1536KiB time=00:00:07.20 bitrate=1745.7kbits/s speed=0.0207x elapsed=0:05:48.01    \nframe=  178 fps=0.5 q=34.2 size=    1536KiB time=00:00:07.33 bitrate=1715.9kbits/s speed=0.021x elapsed=0:05:48.54    \nframe=  179 fps=0.5 q=34.2 size=    1536KiB time=00:00:07.37 bitrate=1706.2kbits/s speed=0.0211x elapsed=0:05:49.07    \nframe=  181 fps=0.5 q=31.7 size=    1536KiB time=00:00:07.45 bitrate=1687.1kbits/s speed=0.0213x elapsed=0:05:49.59    \nframe=  183 fps=0.5 q=32.7 size=    1792KiB time=00:00:07.54 bitrate=1946.6kbits/s speed=0.0215x elapsed=0:05:50.11    \nframe=  184 fps=0.5 q=28.6 size=    1792KiB time=00:00:07.58 bitrate=1935.9kbits/s speed=0.0216x elapsed=0:05:50.63    \nframe=  186 fps=0.5 q=32.7 size=    1792KiB time=00:00:07.66 bitrate=1914.8kbits/s speed=0.0218x elapsed=0:05:51.16    \nframe=  188 fps=0.5 q=28.2 size=    1792KiB time=00:00:07.75 bitrate=1894.2kbits/s speed=0.022x elapsed=0:05:51.66    \nframe=  190 fps=0.5 q=33.1 size=    1792KiB time=00:00:07.83 bitrate=1874.1kbits/s speed=0.0222x elapsed=0:05:52.18    \nframe=  192 fps=0.5 q=31.0 size=    1792KiB time=00:00:07.91 bitrate=1854.4kbits/s speed=0.0224x elapsed=0:05:52.70    \nframe=  193 fps=0.5 q=27.3 size=    1792KiB time=00:00:07.95 bitrate=1844.7kbits/s speed=0.0225x elapsed=0:05:53.22    \nframe=  196 fps=0.6 q=33.0 size=    1792KiB time=00:00:08.08 bitrate=1816.1kbits/s speed=0.0229x elapsed=0:05:53.72    \nframe=  197 fps=0.6 q=33.3 size=    1792KiB time=00:00:08.12 bitrate=1806.8kbits/s speed=0.0229x elapsed=0:05:54.25    \nframe=  199 fps=0.6 q=28.1 size=    1792KiB time=00:00:08.20 bitrate=1788.5kbits/s speed=0.0231x elapsed=0:05:54.77    \nframe=  201 fps=0.6 q=33.0 size=    1792KiB time=00:00:08.29 bitrate=1770.5kbits/s speed=0.0233x elapsed=0:05:55.29    \nframe=  203 fps=0.6 q=27.5 size=    1792KiB time=00:00:08.37 bitrate=1752.9kbits/s speed=0.0235x elapsed=0:05:55.81    \nframe=  205 fps=0.6 q=32.9 size=    1792KiB time=00:00:08.45 bitrate=1735.6kbits/s speed=0.0237x elapsed=0:05:56.32    \nframe=  207 fps=0.6 q=31.6 size=    1792KiB time=00:00:08.54 bitrate=1718.7kbits/s speed=0.0239x elapsed=0:05:56.84    \nframe=  209 fps=0.6 q=30.5 size=    2048KiB time=00:00:08.62 bitrate=1945.2kbits/s speed=0.0241x elapsed=0:05:57.36    \nframe=  211 fps=0.6 q=32.1 size=    2048KiB time=00:00:08.70 bitrate=1926.6kbits/s speed=0.0243x elapsed=0:05:57.88    \nframe=  213 fps=0.6 q=26.7 size=    2048KiB time=00:00:08.79 bitrate=1908.3kbits/s speed=0.0245x elapsed=0:05:58.38    \nframe=  214 fps=0.6 q=29.9 size=    2048KiB time=00:00:08.83 bitrate=1899.3kbits/s speed=0.0246x elapsed=0:05:58.90    \nframe=  217 fps=0.6 q=30.4 size=    2048KiB time=00:00:08.95 bitrate=1872.8kbits/s speed=0.0249x elapsed=0:05:59.43    \nframe=  219 fps=0.6 q=30.5 size=    2048KiB time=00:00:09.04 bitrate=1855.6kbits/s speed=0.0251x elapsed=0:05:59.95    \nframe=  221 fps=0.6 q=31.4 size=    2048KiB time=00:00:09.12 bitrate=1838.6kbits/s speed=0.0253x elapsed=0:06:00.46    \nframe=  223 fps=0.6 q=26.2 size=    2048KiB time=00:00:09.20 bitrate=1822.0kbits/s speed=0.0255x elapsed=0:06:00.97    \nframe=  225 fps=0.6 q=30.4 size=    2048KiB time=00:00:09.29 bitrate=1805.7kbits/s speed=0.0257x elapsed=0:06:01.50    \nframe=  226 fps=0.6 q=30.1 size=    2048KiB time=00:00:09.33 bitrate=1797.6kbits/s speed=0.0258x elapsed=0:06:02.01    \nframe=  229 fps=0.6 q=29.9 size=    2048KiB time=00:00:09.45 bitrate=1773.8kbits/s speed=0.0261x elapsed=0:06:02.53    \nframe=  231 fps=0.6 q=28.5 size=    2048KiB time=00:00:09.54 bitrate=1758.3kbits/s speed=0.0263x elapsed=0:06:03.05    \nframe=  233 fps=0.6 q=27.1 size=    2048KiB time=00:00:09.62 bitrate=1743.1kbits/s speed=0.0265x elapsed=0:06:03.56    \nframe=  236 fps=0.6 q=28.2 size=    2304KiB time=00:00:09.75 bitrate=1935.9kbits/s speed=0.0268x elapsed=0:06:04.07    \nframe=  237 fps=0.7 q=26.7 size=    2304KiB time=00:00:09.79 bitrate=1927.6kbits/s speed=0.0269x elapsed=0:06:04.59    \n[mp4 @ 0000022b7cbeb680] Starting second pass: moving the moov atom to the beginning of the file\n[out#0/mp4 @ 0000022b7cbeb580] video:2376KiB audio:0KiB subtitle:0KiB other streams:0KiB global headers:2KiB muxing overhead: 0.261608%\nframe=  240 fps=0.7 q=26.5 Lsize=    2383KiB time=00:00:09.91 bitrate=1968.2kbits/s speed=0.0272x elapsed=0:06:04.84    \nx265 [info]: frame I:      2, Avg QP:31.51  kb/s: 10197.12\nx265 [info]: frame P:     55, Avg QP:31.61  kb/s: 4685.88 \nx265 [info]: frame B:    183, Avg QP:35.20  kb/s: 1032.31 \nx265 [info]: Weighted P-Frames: Y:0.0% UV:0.0%\n\nencoded 240 frames in 364.08s (0.66 fps), 1945.96 kb/s, Avg QP:34.34\n",
  "seconds": 365.17140531539917,
  "probe_out": {}
}